u2194_ 600 - 160.ufo
<glyph name="numbersign" format="1">
  <advance width="1020"/>
  <unicode hex="0023"/>
  <outline>
    <contour>
      <point x="665" y="-40" type="curve" smooth="yes"/>
      <point x="685" y="39" type="line"/>
      <point x="710" y="39" type="line" smooth="yes"/>
      <point x="796" y="39"/>
      <point x="870" y="113"/>
      <point x="870" y="199" type="curve" smooth="yes"/>
      <point x="870" y="267"/>
      <point x="824" y="327"/>
      <point x="763" y="350" type="curve"/>
      <point x="785" y="439" type="line"/>
      <point x="810" y="439" type="line" smooth="yes"/>
      <point x="896" y="439"/>
      <point x="970" y="513"/>
      <point x="970" y="599" type="curve" smooth="yes"/>
      <point x="970" y="667"/>
      <point x="924" y="727"/>
      <point x="863" y="750" type="curve"/>
      <point x="865" y="760" type="line" smooth="yes"/>
      <point x="886" y="844"/>
      <point x="833" y="933"/>
      <point x="749" y="954" type="curve" smooth="yes"/>
      <point x="700" y="967"/>
      <point x="648" y="953"/>
      <point x="610" y="923" type="curve"/>
      <point x="593" y="937"/>
      <point x="572" y="948"/>
      <point x="549" y="954" type="curve" smooth="yes"/>
      <point x="465" y="975"/>
      <point x="376" y="922"/>
      <point x="355" y="838" type="curve" smooth="yes"/>
      <point x="335" y="759" type="line"/>
      <point x="304" y="759" type="line" smooth="yes"/>
      <point x="218" y="759"/>
      <point x="144" y="685"/>
      <point x="144" y="599" type="curve" smooth="yes"/>
      <point x="144" y="529"/>
      <point x="192" y="467"/>
      <point x="257" y="446" type="curve"/>
      <point x="235" y="359" type="line"/>
      <point x="210" y="359" type="line" smooth="yes"/>
      <point x="124" y="359"/>
      <point x="50" y="285"/>
      <point x="50" y="199" type="curve" smooth="yes"/>
      <point x="50" y="131"/>
      <point x="96" y="71"/>
      <point x="157" y="48" type="curve"/>
      <point x="155" y="38" type="line" smooth="yes"/>
      <point x="134" y="-46"/>
      <point x="187" y="-135"/>
      <point x="271" y="-156" type="curve" smooth="yes"/>
      <point x="320" y="-169"/>
      <point x="372" y="-155"/>
      <point x="410" y="-125" type="curve"/>
      <point x="427" y="-139"/>
      <point x="448" y="-150"/>
      <point x="471" y="-156" type="curve" smooth="yes"/>
      <point x="555" y="-177"/>
      <point x="644" y="-124"/>
    </contour>
  </outline>
</glyph>
<glyph name="dollar" format="1">
  <advance width="1022"/>
  <unicode hex="0024"/>
  <outline>
    <contour>
      <point x="783" y="-41" type="line" smooth="yes"/>
      <point x="966" y="-66"/>
      <point x="1045" y="162"/>
      <point x="885" y="256" type="curve" smooth="yes"/>
      <point x="671" y="381" type="line"/>
      <point x="671" y="382" type="line"/>
      <point x="863" y="448" type="line" smooth="yes"/>
      <point x="945" y="476"/>
      <point x="990" y="569"/>
      <point x="962" y="651" type="curve" smooth="yes"/>
      <point x="934" y="733"/>
      <point x="841" y="778"/>
      <point x="759" y="750" type="curve" smooth="yes"/>
      <point x="671" y="720" type="line"/>
      <point x="671" y="799" type="line" smooth="yes"/>
      <point x="671" y="885"/>
      <point x="597" y="959"/>
      <point x="511" y="959" type="curve" smooth="yes"/>
      <point x="425" y="959"/>
      <point x="351" y="885"/>
      <point x="351" y="799" type="curve" smooth="yes"/>
      <point x="351" y="611" type="line"/>
      <point x="235" y="571" type="line" smooth="yes"/>
      <point x="125" y="533"/>
      <point x="91" y="425"/>
      <point x="142" y="343" type="curve"/>
      <point x="95" y="320"/>
      <point x="59" y="275"/>
      <point x="51" y="221" type="curve" smooth="yes"/>
      <point x="40" y="135"/>
      <point x="103" y="52"/>
      <point x="188" y="40" type="curve" smooth="yes"/>
      <point x="351" y="18" type="line"/>
      <point x="351" y="-1" type="line" smooth="yes"/>
      <point x="351" y="-87"/>
      <point x="425" y="-161"/>
      <point x="511" y="-161" type="curve" smooth="yes"/>
      <point x="589" y="-161"/>
      <point x="657" y="-101"/>
      <point x="669" y="-25" type="curve"/>
    </contour>
  </outline>
</glyph>
<glyph name="asterisk" format="1">
  <advance width="818"/>
  <unicode hex="002A"/>
  <outline>
    <contour>
      <point x="350" y="164" type="curve" smooth="yes"/>
      <point x="428" y="210" type="line"/>
      <point x="431" y="206" type="line" smooth="yes"/>
      <point x="483" y="137"/>
      <point x="586" y="122"/>
      <point x="655" y="174" type="curve" smooth="yes"/>
      <point x="716" y="220"/>
      <point x="735" y="305"/>
      <point x="703" y="372" type="curve"/>
      <point x="767" y="419"/>
      <point x="788" y="513"/>
      <point x="747" y="583" type="curve" smooth="yes"/>
      <point x="709" y="647"/>
      <point x="630" y="675"/>
      <point x="561" y="654" type="curve"/>
      <point x="578" y="709"/>
      <point x="565" y="773"/>
      <point x="522" y="815" type="curve" smooth="yes"/>
      <point x="461" y="876"/>
      <point x="357" y="876"/>
      <point x="296" y="815" type="curve" smooth="yes"/>
      <point x="96" y="615" type="line" smooth="yes"/>
      <point x="35" y="554"/>
      <point x="35" y="450"/>
      <point x="96" y="389" type="curve" smooth="yes"/>
      <point x="104" y="380"/>
      <point x="114" y="373"/>
      <point x="124" y="367" type="curve"/>
      <point x="104" y="321"/>
      <point x="105" y="266"/>
      <point x="131" y="221" type="curve" smooth="yes"/>
      <point x="175" y="146"/>
      <point x="276" y="120"/>
    </contour>
  </outline>
</glyph>
<glyph name="plus" format="1">
  <advance width="820"/>
  <unicode hex="002B"/>
  <outline>
    <contour>
      <point x="410" y="-38" type="curve" smooth="yes"/>
      <point x="496" y="-38"/>
      <point x="570" y="36"/>
      <point x="570" y="122" type="curve" smooth="yes"/>
      <point x="570" y="162" type="line"/>
      <point x="610" y="162" type="line" smooth="yes"/>
      <point x="696" y="162"/>
      <point x="770" y="236"/>
      <point x="770" y="322" type="curve" smooth="yes"/>
      <point x="770" y="408"/>
      <point x="696" y="482"/>
      <point x="610" y="482" type="curve" smooth="yes"/>
      <point x="570" y="482" type="line"/>
      <point x="570" y="522" type="line" smooth="yes"/>
      <point x="570" y="608"/>
      <point x="496" y="682"/>
      <point x="410" y="682" type="curve" smooth="yes"/>
      <point x="324" y="682"/>
      <point x="250" y="608"/>
      <point x="250" y="522" type="curve" smooth="yes"/>
      <point x="250" y="482" type="line"/>
      <point x="210" y="482" type="line" smooth="yes"/>
      <point x="124" y="482"/>
      <point x="50" y="408"/>
      <point x="50" y="322" type="curve" smooth="yes"/>
      <point x="50" y="236"/>
      <point x="124" y="162"/>
      <point x="210" y="162" type="curve" smooth="yes"/>
      <point x="250" y="162" type="line"/>
      <point x="250" y="122" type="line" smooth="yes"/>
      <point x="250" y="36"/>
      <point x="324" y="-38"/>
    </contour>
  </outline>
</glyph>
<glyph name="comma" format="1">
  <advance width="519"/>
  <unicode hex="002C"/>
  <outline>
    <contour>
      <point x="381" y="285" type="curve" smooth="yes"/>
      <point x="303" y="324"/>
      <point x="205" y="291"/>
      <point x="166" y="214" type="curve" smooth="yes"/>
      <point x="66" y="14" type="line" smooth="yes"/>
      <point x="27" y="-64"/>
      <point x="60" y="-162"/>
      <point x="137" y="-201" type="curve" smooth="yes"/>
      <point x="215" y="-240"/>
      <point x="313" y="-207"/>
      <point x="352" y="-130" type="curve" smooth="yes"/>
      <point x="452" y="70" type="line" smooth="yes"/>
      <point x="491" y="148"/>
      <point x="458" y="246"/>
    </contour>
  </outline>
</glyph>
<glyph name="hyphen" format="1">
  <advance width="620"/>
  <unicode hex="002D"/>
  <outline>
    <contour>
      <point x="50" y="296" type="curve" smooth="yes"/>
      <point x="50" y="210"/>
      <point x="124" y="136"/>
      <point x="210" y="136" type="curve" smooth="yes"/>
      <point x="410" y="136" type="line" smooth="yes"/>
      <point x="496" y="136"/>
      <point x="570" y="210"/>
      <point x="570" y="296" type="curve" smooth="yes"/>
      <point x="570" y="382"/>
      <point x="496" y="456"/>
      <point x="410" y="456" type="curve" smooth="yes"/>
      <point x="210" y="456" type="line" smooth="yes"/>
      <point x="124" y="456"/>
      <point x="50" y="382"/>
    </contour>
  </outline>
</glyph>
<glyph name="slash" format="1">
  <advance width="1018"/>
  <unicode hex="002F"/>
  <outline>
    <contour>
      <point x="337" y="-94" type="curve" smooth="yes"/>
      <point x="937" y="706" type="line" smooth="yes"/>
      <point x="989" y="775"/>
      <point x="974" y="878"/>
      <point x="905" y="930" type="curve" smooth="yes"/>
      <point x="836" y="982"/>
      <point x="733" y="967"/>
      <point x="681" y="898" type="curve" smooth="yes"/>
      <point x="81" y="98" type="line" smooth="yes"/>
      <point x="29" y="29"/>
      <point x="44" y="-74"/>
      <point x="113" y="-126" type="curve" smooth="yes"/>
      <point x="182" y="-178"/>
      <point x="285" y="-163"/>
    </contour>
  </outline>
</glyph>
<glyph name="zero" format="1">
  <advance width="1020"/>
  <unicode hex="0030"/>
  <outline>
    <contour>
      <point x="522" y="-113" type="curve" smooth="yes"/>
      <point x="530" y="-106"/>
      <point x="536" y="-98"/>
      <point x="542" y="-90" type="curve"/>
      <point x="927" y="334" type="line" smooth="yes"/>
      <point x="993" y="407"/>
      <point x="982" y="513"/>
      <point x="903" y="571" type="curve" smooth="yes"/>
      <point x="863" y="601" type="line"/>
      <point x="891" y="637" type="line" smooth="yes"/>
      <point x="943" y="706"/>
      <point x="929" y="809"/>
      <point x="860" y="862" type="curve" smooth="yes"/>
      <point x="791" y="914"/>
      <point x="688" y="900"/>
      <point x="635" y="831" type="curve" smooth="yes"/>
      <point x="605" y="790" type="line"/>
      <point x="423" y="923" type="line" smooth="yes"/>
      <point x="321" y="997"/>
      <point x="197" y="949"/>
      <point x="172" y="826" type="curve" smooth="yes"/>
      <point x="52" y="244" type="line" smooth="yes"/>
      <point x="43" y="199"/>
      <point x="61" y="135"/>
      <point x="94" y="101" type="curve" smooth="yes"/>
      <point x="95" y="99" type="line"/>
      <point x="79" y="38"/>
      <point x="100" y="-32"/>
      <point x="152" y="-72" type="curve" smooth="yes"/>
      <point x="191" y="-101"/>
      <point x="240" y="-109"/>
      <point x="285" y="-99" type="curve"/>
      <point x="290" y="-105"/>
      <point x="295" y="-111"/>
      <point x="301" y="-116" type="curve" smooth="yes"/>
      <point x="332" y="-144"/>
      <point x="371" y="-157"/>
      <point x="410" y="-157" type="curve"/>
      <point x="451" y="-157"/>
      <point x="491" y="-143"/>
    </contour>
  </outline>
</glyph>
<glyph name="one" format="1">
  <advance width="1020"/>
  <unicode hex="0031"/>
  <outline>
    <contour>
      <point x="210" y="-159" type="curve" smooth="yes"/>
      <point x="810" y="-159" type="line" smooth="yes"/>
      <point x="896" y="-159"/>
      <point x="970" y="-85"/>
      <point x="970" y="1" type="curve" smooth="yes"/>
      <point x="970" y="87"/>
      <point x="896" y="161"/>
      <point x="810" y="161" type="curve" smooth="yes"/>
      <point x="537" y="161" type="line"/>
      <point x="661" y="507" type="line" smooth="yes"/>
      <point x="697" y="608"/>
      <point x="637" y="705"/>
      <point x="531" y="720" type="curve" smooth="yes"/>
      <point x="231" y="760" type="line" smooth="yes"/>
      <point x="146" y="771"/>
      <point x="63" y="708"/>
      <point x="51" y="622" type="curve" smooth="yes"/>
      <point x="40" y="537"/>
      <point x="103" y="454"/>
      <point x="189" y="442" type="curve" smooth="yes"/>
      <point x="293" y="429" type="line"/>
      <point x="197" y="160" type="line"/>
      <point x="116" y="154"/>
      <point x="50" y="83"/>
      <point x="50" y="1" type="curve" smooth="yes"/>
      <point x="50" y="-85"/>
      <point x="124" y="-159"/>
    </contour>
  </outline>
</glyph>
<glyph name="two" format="1">
  <advance width="1028"/>
  <unicode hex="0032"/>
  <outline>
    <contour>
      <point x="218" y="-160" type="curve" smooth="yes"/>
      <point x="818" y="-160" type="line" smooth="yes"/>
      <point x="904" y="-160"/>
      <point x="978" y="-86"/>
      <point x="978" y="0" type="curve" smooth="yes"/>
      <point x="978" y="86"/>
      <point x="904" y="160"/>
      <point x="818" y="160" type="curve" smooth="yes"/>
      <point x="633" y="160" type="line"/>
      <point x="769" y="282" type="line" smooth="yes"/>
      <point x="861" y="366"/>
      <point x="840" y="496"/>
      <point x="727" y="547" type="curve" smooth="yes"/>
      <point x="284" y="746" type="line" smooth="yes"/>
      <point x="205" y="781"/>
      <point x="107" y="744"/>
      <point x="72" y="666" type="curve" smooth="yes"/>
      <point x="37" y="587"/>
      <point x="74" y="489"/>
      <point x="152" y="454" type="curve" smooth="yes"/>
      <point x="372" y="355" type="line"/>
      <point x="111" y="119" type="line" smooth="yes"/>
      <point x="-8" y="12"/>
      <point x="59" y="-160"/>
    </contour>
  </outline>
</glyph>
<glyph name="three" format="1">
  <advance width="1020"/>
  <unicode hex="0033"/>
  <outline>
    <contour>
      <point x="867" y="-14" type="curve" smooth="yes"/>
      <point x="968" y="574" type="line" smooth="yes"/>
      <point x="985" y="676"/>
      <point x="913" y="761"/>
      <point x="810" y="761" type="curve" smooth="yes"/>
      <point x="210" y="761" type="line" smooth="yes"/>
      <point x="124" y="761"/>
      <point x="50" y="687"/>
      <point x="50" y="601" type="curve" smooth="yes"/>
      <point x="50" y="515"/>
      <point x="124" y="441"/>
      <point x="210" y="441" type="curve" smooth="yes"/>
      <point x="620" y="441" type="line"/>
      <point x="584" y="231" type="line"/>
      <point x="266" y="351" type="line" smooth="yes"/>
      <point x="186" y="381"/>
      <point x="91" y="338"/>
      <point x="60" y="257" type="curve" smooth="yes"/>
      <point x="30" y="177"/>
      <point x="73" y="82"/>
      <point x="154" y="51" type="curve" smooth="yes"/>
      <point x="653" y="-137" type="line" smooth="yes"/>
      <point x="751" y="-174"/>
      <point x="849" y="-118"/>
    </contour>
  </outline>
</glyph>
<glyph name="four" format="1">
  <advance width="981"/>
  <unicode hex="0034"/>
  <outline>
    <contour>
      <point x="771" y="-159" type="curve" smooth="yes"/>
      <point x="857" y="-159"/>
      <point x="931" y="-85"/>
      <point x="931" y="1" type="curve" smooth="yes"/>
      <point x="931" y="600" type="line" smooth="yes"/>
      <point x="931" y="686"/>
      <point x="857" y="760"/>
      <point x="771" y="760" type="curve" smooth="yes"/>
      <point x="685" y="760"/>
      <point x="611" y="686"/>
      <point x="611" y="600" type="curve" smooth="yes"/>
      <point x="611" y="327" type="line"/>
      <point x="438" y="389" type="line"/>
      <point x="613" y="726" type="line" smooth="yes"/>
      <point x="653" y="803"/>
      <point x="621" y="902"/>
      <point x="545" y="942" type="curve" smooth="yes"/>
      <point x="468" y="982"/>
      <point x="369" y="950"/>
      <point x="329" y="874" type="curve" smooth="yes"/>
      <point x="69" y="374" type="line" smooth="yes"/>
      <point x="23" y="285"/>
      <point x="63" y="183"/>
      <point x="157" y="149" type="curve" smooth="yes"/>
      <point x="612" y="-13" type="line"/>
      <point x="619" y="-93"/>
      <point x="689" y="-159"/>
    </contour>
  </outline>
</glyph>
<glyph name="five" format="1">
  <advance width="1027"/>
  <unicode hex="0035"/>
  <outline>
    <contour>
      <point x="210" y="41" type="curve" smooth="yes"/>
      <point x="810" y="41" type="line" smooth="yes"/>
      <point x="999" y="41"/>
      <point x="1042" y="288"/>
      <point x="864" y="352" type="curve" smooth="yes"/>
      <point x="555" y="462" type="line"/>
      <point x="752" y="641" type="line"/>
      <point x="810" y="641" type="line" smooth="yes"/>
      <point x="896" y="641"/>
      <point x="970" y="715"/>
      <point x="970" y="801" type="curve" smooth="yes"/>
      <point x="970" y="887"/>
      <point x="896" y="961"/>
      <point x="810" y="961" type="curve" smooth="yes"/>
      <point x="690" y="961" type="line" smooth="yes"/>
      <point x="656" y="961"/>
      <point x="608" y="942"/>
      <point x="582" y="919" type="curve" smooth="yes"/>
      <point x="142" y="519" type="line" smooth="yes"/>
      <point x="78" y="461"/>
      <point x="69" y="381"/>
      <point x="106" y="321" type="curve"/>
      <point x="72" y="291"/>
      <point x="50" y="248"/>
      <point x="50" y="201" type="curve" smooth="yes"/>
      <point x="50" y="115"/>
      <point x="124" y="41"/>
    </contour>
  </outline>
</glyph>
<glyph name="six" format="1">
  <advance width="1027"/>
  <unicode hex="0036"/>
  <outline>
    <contour>
      <point x="977" y="604" type="curve" smooth="yes"/>
      <point x="977" y="622" type="line" smooth="yes"/>
      <point x="975" y="708"/>
      <point x="904" y="778"/>
      <point x="817" y="779" type="curve" smooth="yes"/>
      <point x="218" y="782" type="line" smooth="yes"/>
      <point x="82" y="782"/>
      <point x="19" y="656"/>
      <point x="64" y="559" type="curve"/>
      <point x="76" y="514"/>
      <point x="108" y="474"/>
      <point x="153" y="454" type="curve" smooth="yes"/>
      <point x="695" y="218" type="line" smooth="yes"/>
      <point x="859" y="146"/>
      <point x="978" y="344"/>
      <point x="890" y="460" type="curve"/>
      <point x="942" y="487"/>
      <point x="978" y="543"/>
    </contour>
  </outline>
</glyph>
<glyph name="seven" format="1">
  <advance width="947"/>
  <unicode hex="0037"/>
  <outline>
    <contour>
      <point x="543" y="-92" type="curve" smooth="yes"/>
      <point x="870" y="400" type="line" smooth="yes"/>
      <point x="921" y="477"/>
      <point x="899" y="578"/>
      <point x="820" y="625" type="curve" smooth="yes"/>
      <point x="313" y="934" type="line" smooth="yes"/>
      <point x="292" y="947"/>
      <point x="255" y="957"/>
      <point x="230" y="957" type="curve" smooth="yes"/>
      <point x="210" y="957" type="line" smooth="yes"/>
      <point x="124" y="957"/>
      <point x="50" y="883"/>
      <point x="50" y="797" type="curve" smooth="yes"/>
      <point x="50" y="721"/>
      <point x="107" y="654"/>
      <point x="180" y="640" type="curve"/>
      <point x="511" y="439" type="line"/>
      <point x="277" y="86" type="line" smooth="yes"/>
      <point x="229" y="14"/>
      <point x="249" y="-88"/>
      <point x="321" y="-136" type="curve" smooth="yes"/>
      <point x="393" y="-184"/>
      <point x="495" y="-164"/>
    </contour>
  </outline>
</glyph>
<glyph name="eight" format="1">
  <advance width="430"/>
  <unicode hex="0038"/>
  <outline>
    <contour>
      <point x="380" y="400" type="curve" smooth="yes"/>
      <point x="380" y="486"/>
      <point x="306" y="560"/>
      <point x="220" y="560" type="curve" smooth="yes"/>
      <point x="210" y="560" type="line" smooth="yes"/>
      <point x="124" y="560"/>
      <point x="50" y="486"/>
      <point x="50" y="400" type="curve" smooth="yes"/>
      <point x="50" y="314"/>
      <point x="124" y="240"/>
      <point x="210" y="240" type="curve" smooth="yes"/>
      <point x="220" y="240" type="line" smooth="yes"/>
      <point x="306" y="240"/>
      <point x="380" y="314"/>
    </contour>
  </outline>
</glyph>
<glyph name="nine" format="1">
  <advance width="1027"/>
  <unicode hex="0039"/>
  <outline>
    <contour>
      <point x="809" y="19" type="line" smooth="yes"/>
      <point x="945" y="19"/>
      <point x="1008" y="145"/>
      <point x="963" y="242" type="curve"/>
      <point x="951" y="287"/>
      <point x="919" y="327"/>
      <point x="874" y="347" type="curve" smooth="yes"/>
      <point x="332" y="583" type="line" smooth="yes"/>
      <point x="168" y="655"/>
      <point x="49" y="457"/>
      <point x="137" y="341" type="curve"/>
      <point x="85" y="314"/>
      <point x="49" y="258"/>
      <point x="50" y="197" type="curve" smooth="yes"/>
      <point x="50" y="179" type="line" smooth="yes"/>
      <point x="52" y="93"/>
      <point x="123" y="23"/>
      <point x="210" y="22" type="curve" smooth="yes"/>
    </contour>
  </outline>
</glyph>
<glyph name="less" format="1">
  <advance width="420"/>
  <unicode hex="003C"/>
  <outline>
    <contour>
      <point x="210" y="663" type="curve" smooth="yes"/>
      <point x="124" y="663"/>
      <point x="50" y="589"/>
      <point x="50" y="503" type="curve" smooth="yes"/>
      <point x="50" y="103" type="line" smooth="yes"/>
      <point x="50" y="17"/>
      <point x="124" y="-57"/>
      <point x="210" y="-57" type="curve" smooth="yes"/>
      <point x="296" y="-57"/>
      <point x="370" y="17"/>
      <point x="370" y="103" type="curve" smooth="yes"/>
      <point x="370" y="503" type="line" smooth="yes"/>
      <point x="370" y="589"/>
      <point x="296" y="663"/>
    </contour>
  </outline>
</glyph>
<glyph name="question" format="1">
  <advance width="895"/>
  <unicode hex="003F"/>
  <outline>
    <contour>
      <point x="409" y="-160" type="curve" smooth="yes"/>
      <point x="495" y="-160"/>
      <point x="569" y="-86"/>
      <point x="569" y="0" type="curve" smooth="yes"/>
      <point x="569" y="11" type="line" smooth="yes"/>
      <point x="569" y="46"/>
      <point x="557" y="78"/>
      <point x="537" y="105" type="curve"/>
      <point x="543" y="112"/>
      <point x="547" y="119"/>
      <point x="551" y="127" type="curve" smooth="yes"/>
      <point x="824" y="657" type="line" smooth="yes"/>
      <point x="893" y="793"/>
      <point x="785" y="925"/>
      <point x="638" y="884" type="curve" smooth="yes"/>
      <point x="167" y="753" type="line" smooth="yes"/>
      <point x="84" y="730"/>
      <point x="33" y="639"/>
      <point x="56" y="556" type="curve" smooth="yes"/>
      <point x="79" y="473"/>
      <point x="170" y="422"/>
      <point x="253" y="445" type="curve" smooth="yes"/>
      <point x="372" y="478" type="line"/>
      <point x="267" y="273" type="line" smooth="yes"/>
      <point x="239" y="219"/>
      <point x="247" y="153"/>
      <point x="281" y="105" type="curve"/>
      <point x="261" y="79"/>
      <point x="249" y="46"/>
      <point x="249" y="11" type="curve" smooth="yes"/>
      <point x="249" y="0" type="line" smooth="yes"/>
      <point x="249" y="-86"/>
      <point x="323" y="-160"/>
    </contour>
  </outline>
</glyph>
<glyph name="at" format="1">
  <advance width="912"/>
  <unicode hex="0040"/>
  <outline>
    <contour>
      <point x="719" y="-161" type="curve" smooth="yes"/>
      <point x="781" y="-105"/>
      <point x="788" y="-6"/>
      <point x="736" y="59" type="curve"/>
      <point x="758" y="86"/>
      <point x="772" y="121"/>
      <point x="772" y="158" type="curve" smooth="yes"/>
      <point x="772" y="310" type="line"/>
      <point x="858" y="713" type="line" smooth="yes"/>
      <point x="891" y="868"/>
      <point x="738" y="968"/>
      <point x="609" y="877" type="curve" smooth="yes"/>
      <point x="120" y="531" type="line" smooth="yes"/>
      <point x="39" y="474"/>
      <point x="27" y="366"/>
      <point x="93" y="293" type="curve" smooth="yes"/>
      <point x="493" y="-149" type="line" smooth="yes"/>
      <point x="551" y="-213"/>
      <point x="655" y="-219"/>
    </contour>
  </outline>
</glyph>
<glyph name="A" format="1">
  <advance width="1010"/>
  <unicode hex="0041"/>
  <outline>
    <contour>
      <point x="800" y="-164" type="curve" smooth="yes"/>
      <point x="886" y="-164"/>
      <point x="960" y="-90"/>
      <point x="960" y="-4" type="curve" smooth="yes"/>
      <point x="960" y="360" type="line" smooth="yes"/>
      <point x="960" y="395"/>
      <point x="941" y="444"/>
      <point x="918" y="469" type="curve" smooth="yes"/>
      <point x="516" y="905" type="line" smooth="yes"/>
      <point x="426" y="1002"/>
      <point x="287" y="972"/>
      <point x="246" y="846" type="curve" smooth="yes"/>
      <point x="60" y="276" type="line" smooth="yes"/>
      <point x="19" y="149"/>
      <point x="114" y="43"/>
      <point x="244" y="69" type="curve" smooth="yes"/>
      <point x="640" y="150" type="line"/>
      <point x="640" y="-4" type="line" smooth="yes"/>
      <point x="640" y="-90"/>
      <point x="714" y="-164"/>
    </contour>
    <contour>
      <point x="450" y="438" type="line"/>
      <point x="466" y="487" type="line"/>
      <point x="501" y="448" type="line"/>
    </contour>
  </outline>
</glyph>
<glyph name="C" format="1">
  <advance width="1014"/>
  <unicode hex="0043"/>
  <outline>
    <contour>
      <point x="248" y="-65" type="curve" smooth="yes"/>
      <point x="832" y="41" type="line" smooth="yes"/>
      <point x="917" y="56"/>
      <point x="977" y="141"/>
      <point x="961" y="226" type="curve" smooth="yes"/>
      <point x="946" y="311"/>
      <point x="861" y="371"/>
      <point x="776" y="355" type="curve" smooth="yes"/>
      <point x="377" y="284" type="line"/>
      <point x="373" y="499" type="line"/>
      <point x="781" y="440" type="line" smooth="yes"/>
      <point x="867" y="427"/>
      <point x="950" y="490"/>
      <point x="962" y="575" type="curve" smooth="yes"/>
      <point x="975" y="661"/>
      <point x="912" y="744"/>
      <point x="827" y="756" type="curve" smooth="yes"/>
      <point x="233" y="842" type="line" smooth="yes"/>
      <point x="132" y="857"/>
      <point x="49" y="784"/>
      <point x="50" y="681" type="curve" smooth="yes"/>
      <point x="60" y="90" type="line" smooth="yes"/>
      <point x="61" y="-12"/>
      <point x="147" y="-83"/>
    </contour>
  </outline>
</glyph>
<glyph name="D" format="1">
  <advance width="1020"/>
  <unicode hex="0044"/>
  <outline>
    <contour>
      <point x="967" y="148" type="curve" smooth="yes"/>
      <point x="970" y="588" type="line" smooth="yes"/>
      <point x="970" y="592"/>
      <point x="970" y="597"/>
      <point x="970" y="601" type="curve"/>
      <point x="968" y="666"/>
      <point x="927" y="727"/>
      <point x="863" y="750" type="curve" smooth="yes"/>
      <point x="298" y="950" type="line" smooth="yes"/>
      <point x="192" y="987"/>
      <point x="92" y="921"/>
      <point x="85" y="808" type="curve" smooth="yes"/>
      <point x="50" y="218" type="line" smooth="yes"/>
      <point x="45" y="134"/>
      <point x="110" y="58"/>
      <point x="194" y="50" type="curve" smooth="yes"/>
      <point x="791" y="-10" type="line" smooth="yes"/>
      <point x="887" y="-20"/>
      <point x="966" y="51"/>
    </contour>
    <contour>
      <point x="648" y="326" type="line"/>
      <point x="379" y="353" type="line"/>
      <point x="392" y="577" type="line"/>
      <point x="649" y="486" type="line"/>
    </contour>
  </outline>
</glyph>
<glyph name="E" format="1">
  <advance width="971"/>
  <unicode hex="0045"/>
  <outline>
    <contour>
      <point x="677" y="-114" type="curve" smooth="yes"/>
      <point x="875" y="82" type="line" smooth="yes"/>
      <point x="936" y="143"/>
      <point x="936" y="247"/>
      <point x="876" y="309" type="curve" smooth="yes"/>
      <point x="815" y="370"/>
      <point x="711" y="370"/>
      <point x="649" y="310" type="curve" smooth="yes"/>
      <point x="565" y="226" type="line"/>
      <point x="489" y="305" type="line"/>
      <point x="826" y="456" type="line" smooth="yes"/>
      <point x="905" y="491"/>
      <point x="942" y="589"/>
      <point x="907" y="667" type="curve" smooth="yes"/>
      <point x="872" y="746"/>
      <point x="774" y="783"/>
      <point x="696" y="748" type="curve" smooth="yes"/>
      <point x="149" y="503" type="line" smooth="yes"/>
      <point x="40" y="455"/>
      <point x="17" y="331"/>
      <point x="100" y="246" type="curve" smooth="yes"/>
      <point x="447" y="-112" type="line" smooth="yes"/>
      <point x="479" y="-144"/>
      <point x="521" y="-159"/>
      <point x="564" y="-159" type="curve"/>
      <point x="605" y="-159"/>
      <point x="646" y="-144"/>
    </contour>
  </outline>
</glyph>
<glyph name="F" format="1">
  <advance width="1018"/>
  <unicode hex="0046"/>
  <outline>
    <contour>
      <point x="368" y="-25" type="curve" smooth="yes"/>
      <point x="412" y="251" type="line"/>
      <point x="874" y="456" type="line" smooth="yes"/>
      <point x="953" y="491"/>
      <point x="990" y="588"/>
      <point x="955" y="667" type="curve" smooth="yes"/>
      <point x="920" y="746"/>
      <point x="823" y="783"/>
      <point x="744" y="748" type="curve" smooth="yes"/>
      <point x="203" y="509" type="line" smooth="yes"/>
      <point x="159" y="489"/>
      <point x="117" y="435"/>
      <point x="110" y="387" type="curve" smooth="yes"/>
      <point x="52" y="25" type="line" smooth="yes"/>
      <point x="38" y="-60"/>
      <point x="100" y="-144"/>
      <point x="185" y="-158" type="curve" smooth="yes"/>
      <point x="270" y="-172"/>
      <point x="354" y="-110"/>
    </contour>
  </outline>
</glyph>
<glyph name="G" format="1">
  <advance width="1021"/>
  <unicode hex="0047"/>
  <outline>
    <contour>
      <point x="262" y="-66" type="curve" smooth="yes"/>
      <point x="843" y="79" type="line" smooth="yes"/>
      <point x="977" y="112"/>
      <point x="1014" y="258"/>
      <point x="913" y="351" type="curve" smooth="yes"/>
      <point x="812" y="444" type="line"/>
      <point x="886" y="449"/>
      <point x="952" y="506"/>
      <point x="962" y="582" type="curve" smooth="yes"/>
      <point x="974" y="667"/>
      <point x="912" y="751"/>
      <point x="826" y="762" type="curve" smooth="yes"/>
      <point x="232" y="845" type="line" smooth="yes"/>
      <point x="131" y="860"/>
      <point x="48" y="786"/>
      <point x="50" y="684" type="curve" smooth="yes"/>
      <point x="63" y="85" type="line" smooth="yes"/>
      <point x="65" y="-22"/>
      <point x="157" y="-93"/>
    </contour>
    <contour>
      <point x="379" y="293" type="line"/>
      <point x="376" y="412" type="line"/>
      <point x="478" y="317" type="line"/>
    </contour>
  </outline>
</glyph>
<glyph name="K" format="1">
  <advance width="1019"/>
  <unicode hex="004B"/>
  <outline>
    <contour>
      <point x="928" y="-104" type="curve" smooth="yes"/>
      <point x="986" y="-40"/>
      <point x="982" y="64"/>
      <point x="918" y="122" type="curve" smooth="yes"/>
      <point x="728" y="296" type="line"/>
      <point x="738" y="307"/>
      <point x="746" y="319"/>
      <point x="753" y="332" type="curve" smooth="yes"/>
      <point x="953" y="732" type="line" smooth="yes"/>
      <point x="992" y="810"/>
      <point x="959" y="908"/>
      <point x="882" y="947" type="curve" smooth="yes"/>
      <point x="804" y="986"/>
      <point x="706" y="953"/>
      <point x="667" y="876" type="curve" smooth="yes"/>
      <point x="495" y="531" type="line"/>
      <point x="358" y="865" type="line" smooth="yes"/>
      <point x="325" y="945"/>
      <point x="229" y="985"/>
      <point x="149" y="952" type="curve" smooth="yes"/>
      <point x="69" y="919"/>
      <point x="29" y="823"/>
      <point x="62" y="743" type="curve" smooth="yes"/>
      <point x="227" y="342" type="line" smooth="yes"/>
      <point x="234" y="324"/>
      <point x="252" y="298"/>
      <point x="267" y="284" type="curve" smooth="yes"/>
      <point x="702" y="-114" type="line" smooth="yes"/>
      <point x="766" y="-172"/>
      <point x="870" y="-168"/>
    </contour>
  </outline>
</glyph>
<glyph name="L" format="1">
  <advance width="1020"/>
  <unicode hex="004C"/>
  <outline>
    <contour>
      <point x="770" y="-160" type="curve" smooth="yes"/>
      <point x="810" y="-160" type="line" smooth="yes"/>
      <point x="896" y="-160"/>
      <point x="970" y="-86"/>
      <point x="970" y="0" type="curve" smooth="yes"/>
      <point x="970" y="86"/>
      <point x="896" y="160"/>
      <point x="810" y="160" type="curve" smooth="yes"/>
      <point x="798" y="160" type="line"/>
      <point x="370" y="313" type="line"/>
      <point x="370" y="800" type="line" smooth="yes"/>
      <point x="370" y="886"/>
      <point x="296" y="960"/>
      <point x="210" y="960" type="curve" smooth="yes"/>
      <point x="124" y="960"/>
      <point x="50" y="886"/>
      <point x="50" y="800" type="curve" smooth="yes"/>
      <point x="50" y="200" type="line"/>
      <point x="50" y="138"/>
      <point x="98" y="70"/>
      <point x="156" y="49" type="curve" smooth="yes"/>
      <point x="716" y="-151" type="line" smooth="yes"/>
      <point x="731" y="-156"/>
      <point x="755" y="-160"/>
    </contour>
  </outline>
</glyph>
<glyph name="M" format="1">
  <advance width="1020"/>
  <unicode hex="004D"/>
  <outline>
    <contour>
      <point x="810" y="-161" type="curve" smooth="yes"/>
      <point x="896" y="-161"/>
      <point x="970" y="-87"/>
      <point x="970" y="-1" type="curve" smooth="yes"/>
      <point x="970" y="599" type="line" smooth="yes"/>
      <point x="970" y="661"/>
      <point x="922" y="729"/>
      <point x="864" y="750" type="curve" smooth="yes"/>
      <point x="304" y="950" type="line" smooth="yes"/>
      <point x="198" y="987"/>
      <point x="98" y="922"/>
      <point x="90" y="810" type="curve" smooth="yes"/>
      <point x="50" y="220" type="line"/>
      <point x="50" y="-1" type="line" smooth="yes"/>
      <point x="50" y="-87"/>
      <point x="124" y="-161"/>
      <point x="210" y="-161" type="curve" smooth="yes"/>
      <point x="296" y="-161"/>
      <point x="370" y="-87"/>
      <point x="370" y="-1" type="curve" smooth="yes"/>
      <point x="370" y="198" type="line"/>
      <point x="395" y="577" type="line"/>
      <point x="650" y="486" type="line"/>
      <point x="650" y="-1" type="line" smooth="yes"/>
      <point x="650" y="-87"/>
      <point x="724" y="-161"/>
    </contour>
  </outline>
</glyph>
<glyph name="O" format="1">
  <advance width="1018"/>
  <unicode hex="004F"/>
  <outline>
    <contour>
      <point x="762" y="-54" type="curve" smooth="yes"/>
      <point x="959" y="506" type="line" smooth="yes"/>
      <point x="989" y="592"/>
      <point x="943" y="685"/>
      <point x="855" y="712" type="curve" smooth="yes"/>
      <point x="285" y="889" type="line" smooth="yes"/>
      <point x="179" y="922"/>
      <point x="82" y="854"/>
      <point x="77" y="744" type="curve" smooth="yes"/>
      <point x="50" y="147" type="line" smooth="yes"/>
      <point x="47" y="82"/>
      <point x="94" y="11"/>
      <point x="156" y="-11" type="curve" smooth="yes"/>
      <point x="547" y="-152" type="line" smooth="yes"/>
      <point x="565" y="-158"/>
      <point x="585" y="-161"/>
      <point x="604" y="-160" type="curve"/>
      <point x="672" y="-163"/>
      <point x="739" y="-121"/>
    </contour>
    <contour>
      <point x="512" y="201" type="line"/>
      <point x="375" y="250" type="line"/>
      <point x="387" y="522" type="line"/>
      <point x="602" y="455" type="line"/>
    </contour>
  </outline>
</glyph>
<glyph name="P" format="1">
  <advance width="967"/>
  <unicode hex="0050"/>
  <outline>
    <contour>
      <point x="210" y="-157" type="curve" smooth="yes"/>
      <point x="294" y="-157"/>
      <point x="365" y="-88"/>
      <point x="370" y="-5" type="curve"/>
      <point x="819" y="197" type="line" smooth="yes"/>
      <point x="921" y="243"/>
      <point x="948" y="359"/>
      <point x="876" y="445" type="curve" smooth="yes"/>
      <point x="497" y="904" type="line" smooth="yes"/>
      <point x="407" y="1012"/>
      <point x="258" y="980"/>
      <point x="220" y="846" type="curve" smooth="yes"/>
      <point x="56" y="277" type="line" smooth="yes"/>
      <point x="53" y="265"/>
      <point x="50" y="245"/>
      <point x="50" y="233" type="curve" smooth="yes"/>
      <point x="50" y="3" type="line" smooth="yes"/>
      <point x="50" y="-83"/>
      <point x="124" y="-157"/>
    </contour>
    <contour>
      <point x="415" y="366" type="line"/>
      <point x="443" y="466" type="line"/>
      <point x="496" y="403" type="line"/>
    </contour>
  </outline>
</glyph>
<glyph name="S" format="1">
  <advance width="1021"/>
  <unicode hex="0053"/>
  <outline>
    <contour>
      <point x="263" y="53" type="curve" smooth="yes"/>
      <point x="780" y="236" type="line" smooth="yes"/>
      <point x="886" y="274"/>
      <point x="920" y="377"/>
      <point x="875" y="458" type="curve"/>
      <point x="923" y="480"/>
      <point x="961" y="525"/>
      <point x="969" y="580" type="curve" smooth="yes"/>
      <point x="982" y="665"/>
      <point x="921" y="749"/>
      <point x="835" y="762" type="curve" smooth="yes"/>
      <point x="243" y="853" type="line" smooth="yes"/>
      <point x="59" y="881"/>
      <point x="-23" y="654"/>
      <point x="135" y="558" type="curve" smooth="yes"/>
      <point x="355" y="425" type="line"/>
      <point x="157" y="355" type="line" smooth="yes"/>
      <point x="75" y="326"/>
      <point x="30" y="232"/>
      <point x="59" y="151" type="curve" smooth="yes"/>
      <point x="88" y="69"/>
      <point x="182" y="24"/>
    </contour>
  </outline>
</glyph>
<glyph name="T" format="1">
  <advance width="719"/>
  <unicode hex="0054"/>
  <outline>
    <contour>
      <point x="509" y="-160" type="curve" smooth="yes"/>
      <point x="595" y="-160"/>
      <point x="669" y="-86"/>
      <point x="669" y="0" type="curve" smooth="yes"/>
      <point x="669" y="600" type="line" smooth="yes"/>
      <point x="669" y="647"/>
      <point x="637" y="707"/>
      <point x="598" y="733" type="curve" smooth="yes"/>
      <point x="298" y="933" type="line" smooth="yes"/>
      <point x="226" y="981"/>
      <point x="124" y="961"/>
      <point x="76" y="889" type="curve" smooth="yes"/>
      <point x="28" y="817"/>
      <point x="48" y="715"/>
      <point x="120" y="667" type="curve" smooth="yes"/>
      <point x="349" y="514" type="line"/>
      <point x="349" y="0" type="line" smooth="yes"/>
      <point x="349" y="-86"/>
      <point x="423" y="-160"/>
    </contour>
  </outline>
</glyph>
<glyph name="U" format="1">
  <advance width="1019"/>
  <unicode hex="0055"/>
  <outline>
    <contour>
      <point x="969" y="199" type="curve" smooth="yes"/>
      <point x="969" y="799" type="line" smooth="yes"/>
      <point x="969" y="885"/>
      <point x="895" y="959"/>
      <point x="809" y="959" type="curve" smooth="yes"/>
      <point x="723" y="959"/>
      <point x="649" y="885"/>
      <point x="649" y="799" type="curve" smooth="yes"/>
      <point x="649" y="367" type="line"/>
      <point x="370" y="381" type="line"/>
      <point x="370" y="799" type="line" smooth="yes"/>
      <point x="370" y="885"/>
      <point x="296" y="959"/>
      <point x="210" y="959" type="curve" smooth="yes"/>
      <point x="124" y="959"/>
      <point x="50" y="885"/>
      <point x="50" y="799" type="curve" smooth="yes"/>
      <point x="50" y="229" type="line" smooth="yes"/>
      <point x="50" y="145"/>
      <point x="118" y="73"/>
      <point x="202" y="69" type="curve" smooth="yes"/>
      <point x="801" y="39" type="line" smooth="yes"/>
      <point x="894" y="35"/>
      <point x="969" y="106"/>
    </contour>
  </outline>
</glyph>
<glyph name="V" format="1">
  <advance width="1020"/>
  <unicode hex="0056"/>
  <outline>
    <contour>
      <point x="965" y="124" type="curve" smooth="yes"/>
      <point x="970" y="719" type="line"/>
      <point x="970" y="800" type="line" smooth="yes"/>
      <point x="970" y="886"/>
      <point x="896" y="960"/>
      <point x="810" y="960" type="curve" smooth="yes"/>
      <point x="724" y="960"/>
      <point x="650" y="886"/>
      <point x="650" y="800" type="curve" smooth="yes"/>
      <point x="650" y="721" type="line"/>
      <point x="646" y="306" type="line"/>
      <point x="370" y="341" type="line"/>
      <point x="370" y="800" type="line" smooth="yes"/>
      <point x="370" y="886"/>
      <point x="296" y="960"/>
      <point x="210" y="960" type="curve" smooth="yes"/>
      <point x="124" y="960"/>
      <point x="50" y="886"/>
      <point x="50" y="800" type="curve" smooth="yes"/>
      <point x="50" y="200" type="line"/>
      <point x="50" y="122"/>
      <point x="113" y="51"/>
      <point x="190" y="41" type="curve" smooth="yes"/>
      <point x="785" y="-34" type="line" smooth="yes"/>
      <point x="883" y="-46"/>
      <point x="964" y="25"/>
    </contour>
  </outline>
</glyph>
<glyph name="W" format="1">
  <advance width="1020"/>
  <unicode hex="0057"/>
  <outline>
    <contour>
      <point x="930" y="-11" type="curve" smooth="yes"/>
      <point x="970" y="579" type="line"/>
      <point x="970" y="800" type="line" smooth="yes"/>
      <point x="970" y="886"/>
      <point x="896" y="960"/>
      <point x="810" y="960" type="curve" smooth="yes"/>
      <point x="724" y="960"/>
      <point x="650" y="886"/>
      <point x="650" y="800" type="curve" smooth="yes"/>
      <point x="650" y="601" type="line"/>
      <point x="625" y="222" type="line"/>
      <point x="370" y="313" type="line"/>
      <point x="370" y="800" type="line" smooth="yes"/>
      <point x="370" y="886"/>
      <point x="296" y="960"/>
      <point x="210" y="960" type="curve" smooth="yes"/>
      <point x="124" y="960"/>
      <point x="50" y="886"/>
      <point x="50" y="800" type="curve" smooth="yes"/>
      <point x="50" y="200" type="line"/>
      <point x="50" y="138"/>
      <point x="98" y="70"/>
      <point x="156" y="49" type="curve" smooth="yes"/>
      <point x="716" y="-151" type="line" smooth="yes"/>
      <point x="822" y="-188"/>
      <point x="922" y="-123"/>
    </contour>
  </outline>
</glyph>
<glyph name="Y" format="1">
  <advance width="740"/>
  <unicode hex="0059"/>
  <outline>
    <contour>
      <point x="317" y="-117" type="curve" smooth="yes"/>
      <point x="640" y="180" type="line" smooth="yes"/>
      <point x="695" y="231"/>
      <point x="706" y="322"/>
      <point x="666" y="385" type="curve" smooth="yes"/>
      <point x="343" y="885" type="line" smooth="yes"/>
      <point x="297" y="957"/>
      <point x="195" y="979"/>
      <point x="122" y="932" type="curve" smooth="yes"/>
      <point x="50" y="886"/>
      <point x="28" y="784"/>
      <point x="75" y="711" type="curve" smooth="yes"/>
      <point x="324" y="324" type="line"/>
      <point x="101" y="119" type="line" smooth="yes"/>
      <point x="37" y="60"/>
      <point x="33" y="-44"/>
      <point x="91" y="-107" type="curve" smooth="yes"/>
      <point x="150" y="-171"/>
      <point x="254" y="-175"/>
    </contour>
  </outline>
</glyph>
<glyph name="bracketleft" format="1">
  <advance width="717"/>
  <unicode hex="005B"/>
  <outline>
    <contour>
      <point x="623" y="-111" type="curve" smooth="yes"/>
      <point x="683" y="-49"/>
      <point x="681" y="55"/>
      <point x="619" y="115" type="curve" smooth="yes"/>
      <point x="410" y="317" type="line"/>
      <point x="646" y="719" type="line" smooth="yes"/>
      <point x="690" y="793"/>
      <point x="664" y="894"/>
      <point x="589" y="938" type="curve" smooth="yes"/>
      <point x="515" y="982"/>
      <point x="414" y="956"/>
      <point x="370" y="881" type="curve" smooth="yes"/>
      <point x="70" y="371" type="line" smooth="yes"/>
      <point x="35" y="311"/>
      <point x="47" y="223"/>
      <point x="97" y="175" type="curve" smooth="yes"/>
      <point x="397" y="-115" type="line" smooth="yes"/>
      <point x="459" y="-175"/>
      <point x="563" y="-173"/>
    </contour>
  </outline>
</glyph>
<glyph name="bracketright" format="1">
  <advance width="717"/>
  <unicode hex="005D"/>
  <outline>
    <contour>
      <point x="320" y="-116" type="curve" smooth="yes"/>
      <point x="620" y="174" type="line" smooth="yes"/>
      <point x="670" y="222"/>
      <point x="682" y="310"/>
      <point x="647" y="370" type="curve" smooth="yes"/>
      <point x="347" y="880" type="line" smooth="yes"/>
      <point x="303" y="955"/>
      <point x="202" y="981"/>
      <point x="128" y="937" type="curve" smooth="yes"/>
      <point x="53" y="893"/>
      <point x="27" y="792"/>
      <point x="71" y="718" type="curve" smooth="yes"/>
      <point x="307" y="316" type="line"/>
      <point x="98" y="114" type="line" smooth="yes"/>
      <point x="36" y="54"/>
      <point x="34" y="-50"/>
      <point x="94" y="-112" type="curve" smooth="yes"/>
      <point x="154" y="-174"/>
      <point x="258" y="-176"/>
    </contour>
  </outline>
</glyph>
<glyph name="underscore" format="1">
  <advance width="996"/>
  <unicode hex="005F"/>
  <outline>
    <contour>
      <point x="50" y="-185" type="curve" smooth="yes"/>
      <point x="50" y="-271"/>
      <point x="124" y="-345"/>
      <point x="210" y="-345" type="curve" smooth="yes"/>
      <point x="786" y="-345" type="line" smooth="yes"/>
      <point x="872" y="-345"/>
      <point x="946" y="-271"/>
      <point x="946" y="-185" type="curve" smooth="yes"/>
      <point x="946" y="-99"/>
      <point x="872" y="-25"/>
      <point x="786" y="-25" type="curve" smooth="yes"/>
      <point x="210" y="-25" type="line" smooth="yes"/>
      <point x="124" y="-25"/>
      <point x="50" y="-99"/>
    </contour>
  </outline>
</glyph>
<glyph name="f" format="1">
  <advance width="1018"/>
  <unicode hex="0066"/>
  <outline>
    <contour>
      <point x="368" y="-20" type="curve" smooth="yes"/>
      <point x="409" y="244" type="line"/>
      <point x="410" y="244" type="line" smooth="yes"/>
      <point x="610" y="244" type="line" smooth="yes"/>
      <point x="696" y="244"/>
      <point x="770" y="318"/>
      <point x="770" y="404" type="curve" smooth="yes"/>
      <point x="770" y="407"/>
      <point x="770" y="411"/>
      <point x="770" y="414" type="curve"/>
      <point x="874" y="460" type="line" smooth="yes"/>
      <point x="953" y="495"/>
      <point x="990" y="592"/>
      <point x="955" y="671" type="curve" smooth="yes"/>
      <point x="920" y="750"/>
      <point x="823" y="787"/>
      <point x="744" y="752" type="curve" smooth="yes"/>
      <point x="201" y="512" type="line" smooth="yes"/>
      <point x="157" y="492"/>
      <point x="115" y="438"/>
      <point x="108" y="390" type="curve" smooth="yes"/>
      <point x="52" y="28" type="line" smooth="yes"/>
      <point x="39" y="-57"/>
      <point x="100" y="-141"/>
      <point x="186" y="-154" type="curve" smooth="yes"/>
      <point x="271" y="-167"/>
      <point x="355" y="-106"/>
    </contour>
  </outline>
</glyph>
<glyph name="h" format="1">
  <advance width="1020"/>
  <unicode hex="0068"/>
  <outline>
    <contour>
      <point x="810" y="-164" type="curve" smooth="yes"/>
      <point x="896" y="-164"/>
      <point x="970" y="-90"/>
      <point x="970" y="-4" type="curve" smooth="yes"/>
      <point x="970" y="596" type="line" smooth="yes"/>
      <point x="970" y="721"/>
      <point x="859" y="793"/>
      <point x="745" y="742" type="curve" smooth="yes"/>
      <point x="396" y="588" type="line"/>
      <point x="369" y="815" type="line" smooth="yes"/>
      <point x="359" y="901"/>
      <point x="277" y="965"/>
      <point x="191" y="955" type="curve" smooth="yes"/>
      <point x="105" y="945"/>
      <point x="41" y="863"/>
      <point x="51" y="777" type="curve" smooth="yes"/>
      <point x="104" y="335" type="line" smooth="yes"/>
      <point x="117" y="221"/>
      <point x="223" y="161"/>
      <point x="327" y="207" type="curve" smooth="yes"/>
      <point x="650" y="350" type="line"/>
      <point x="650" y="-4" type="line" smooth="yes"/>
      <point x="650" y="-90"/>
      <point x="724" y="-164"/>
    </contour>
  </outline>
</glyph>
<glyph name="i" format="1">
  <advance width="1018"/>
  <unicode hex="0069"/>
  <outline>
    <contour>
      <point x="347" y="-82" type="curve" smooth="yes"/>
      <point x="636" y="410" type="line"/>
      <point x="920" y="684" type="line" smooth="yes"/>
      <point x="982" y="744"/>
      <point x="984" y="848"/>
      <point x="924" y="910" type="curve" smooth="yes"/>
      <point x="864" y="972"/>
      <point x="760" y="974"/>
      <point x="698" y="914" type="curve" smooth="yes"/>
      <point x="398" y="625" type="line" smooth="yes"/>
      <point x="389" y="616"/>
      <point x="377" y="601"/>
      <point x="371" y="591" type="curve" smooth="yes"/>
      <point x="71" y="80" type="line" smooth="yes"/>
      <point x="27" y="6"/>
      <point x="53" y="-95"/>
      <point x="128" y="-139" type="curve" smooth="yes"/>
      <point x="202" y="-183"/>
      <point x="303" y="-157"/>
    </contour>
  </outline>
</glyph>
<glyph name="j" format="1">
  <advance width="1018"/>
  <unicode hex="006A"/>
  <outline>
    <contour>
      <point x="320" y="-116" type="curve" smooth="yes"/>
      <point x="620" y="173" type="line" smooth="yes"/>
      <point x="629" y="182"/>
      <point x="641" y="197"/>
      <point x="647" y="207" type="curve" smooth="yes"/>
      <point x="947" y="718" type="line" smooth="yes"/>
      <point x="991" y="792"/>
      <point x="965" y="893"/>
      <point x="890" y="937" type="curve" smooth="yes"/>
      <point x="816" y="981"/>
      <point x="715" y="955"/>
      <point x="671" y="880" type="curve" smooth="yes"/>
      <point x="382" y="388" type="line"/>
      <point x="98" y="114" type="line" smooth="yes"/>
      <point x="36" y="54"/>
      <point x="34" y="-50"/>
      <point x="94" y="-112" type="curve" smooth="yes"/>
      <point x="154" y="-174"/>
      <point x="258" y="-176"/>
    </contour>
  </outline>
</glyph>
<glyph name="n" format="1">
  <advance width="1020"/>
  <unicode hex="006E"/>
  <outline>
    <contour>
      <point x="370" y="-1" type="curve" smooth="yes"/>
      <point x="370" y="138" type="line"/>
      <point x="504" y="385" type="line"/>
      <point x="674" y="114" type="line" smooth="yes"/>
      <point x="766" y="-33"/>
      <point x="970" y="26"/>
      <point x="970" y="199" type="curve" smooth="yes"/>
      <point x="970" y="799" type="line" smooth="yes"/>
      <point x="970" y="885"/>
      <point x="896" y="959"/>
      <point x="810" y="959" type="curve" smooth="yes"/>
      <point x="724" y="959"/>
      <point x="650" y="885"/>
      <point x="650" y="799" type="curve" smooth="yes"/>
      <point x="650" y="755" type="line"/>
      <point x="630" y="787" type="line" smooth="yes"/>
      <point x="559" y="899"/>
      <point x="417" y="895"/>
      <point x="354" y="778" type="curve" smooth="yes"/>
      <point x="69" y="255" type="line" smooth="yes"/>
      <point x="59" y="236"/>
      <point x="50" y="201"/>
      <point x="50" y="179" type="curve" smooth="yes"/>
      <point x="50" y="-1" type="line" smooth="yes"/>
      <point x="50" y="-87"/>
      <point x="124" y="-161"/>
      <point x="210" y="-161" type="curve" smooth="yes"/>
      <point x="296" y="-161"/>
      <point x="370" y="-87"/>
    </contour>
  </outline>
</glyph>
<glyph name="q" format="1">
  <advance width="1019"/>
  <unicode hex="0071"/>
  <outline>
    <contour>
      <point x="759" y="-55" type="curve" smooth="yes"/>
      <point x="959" y="505" type="line" smooth="yes"/>
      <point x="990" y="592"/>
      <point x="943" y="685"/>
      <point x="855" y="712" type="curve" smooth="yes"/>
      <point x="285" y="889" type="line" smooth="yes"/>
      <point x="179" y="922"/>
      <point x="82" y="854"/>
      <point x="77" y="744" type="curve" smooth="yes"/>
      <point x="50" y="156" type="line" smooth="yes"/>
      <point x="47" y="93"/>
      <point x="93" y="22"/>
      <point x="152" y="0" type="curve" smooth="yes"/>
      <point x="540" y="-150" type="line" smooth="yes"/>
      <point x="560" y="-158"/>
      <point x="580" y="-161"/>
      <point x="600" y="-160" type="curve"/>
      <point x="668" y="-163"/>
      <point x="735" y="-121"/>
    </contour>
    <contour>
      <point x="511" y="204" type="line"/>
      <point x="375" y="257" type="line"/>
      <point x="387" y="522" type="line"/>
      <point x="601" y="456" type="line"/>
    </contour>
  </outline>
</glyph>
<glyph name="r" format="1">
  <advance width="1020"/>
  <unicode hex="0072"/>
  <outline>
    <contour>
      <point x="948" y="-85" type="curve" smooth="yes"/>
      <point x="992" y="-10"/>
      <point x="966" y="90"/>
      <point x="891" y="134" type="curve" smooth="yes"/>
      <point x="749" y="217" type="line"/>
      <point x="778" y="271"/>
      <point x="776" y="341"/>
      <point x="738" y="392" type="curve" smooth="yes"/>
      <point x="686" y="461"/>
      <point x="583" y="476"/>
      <point x="514" y="424" type="curve" smooth="yes"/>
      <point x="509" y="420" type="line"/>
      <point x="481" y="442"/>
      <point x="446" y="456"/>
      <point x="409" y="456" type="curve" smooth="yes"/>
      <point x="299" y="456" type="line" smooth="yes"/>
      <point x="137" y="456"/>
      <point x="76" y="277"/>
      <point x="188" y="180" type="curve"/>
      <point x="113" y="124" type="line" smooth="yes"/>
      <point x="44" y="72"/>
      <point x="29" y="-31"/>
      <point x="81" y="-100" type="curve" smooth="yes"/>
      <point x="133" y="-169"/>
      <point x="236" y="-184"/>
      <point x="305" y="-132" type="curve" smooth="yes"/>
      <point x="484" y="2" type="line"/>
      <point x="729" y="-142" type="line" smooth="yes"/>
      <point x="804" y="-186"/>
      <point x="904" y="-160"/>
    </contour>
  </outline>
</glyph>
<glyph name="x" format="1">
  <advance width="1019"/>
  <unicode hex="0078"/>
  <outline>
    <contour>
      <point x="358" y="-61" type="curve" smooth="yes"/>
      <point x="436" y="129" type="line"/>
      <point x="701" y="-117" type="line" smooth="yes"/>
      <point x="765" y="-176"/>
      <point x="869" y="-172"/>
      <point x="927" y="-109" type="curve" smooth="yes"/>
      <point x="986" y="-45"/>
      <point x="982" y="59"/>
      <point x="919" y="117" type="curve" smooth="yes"/>
      <point x="613" y="401" type="line"/>
      <point x="918" y="682" type="line" smooth="yes"/>
      <point x="982" y="741"/>
      <point x="986" y="845"/>
      <point x="928" y="908" type="curve" smooth="yes"/>
      <point x="869" y="972"/>
      <point x="765" y="976"/>
      <point x="702" y="918" type="curve" smooth="yes"/>
      <point x="436" y="674" type="line"/>
      <point x="358" y="862" type="line" smooth="yes"/>
      <point x="324" y="942"/>
      <point x="228" y="981"/>
      <point x="148" y="948" type="curve" smooth="yes"/>
      <point x="68" y="914"/>
      <point x="29" y="818"/>
      <point x="62" y="738" type="curve" smooth="yes"/>
      <point x="203" y="404" type="line"/>
      <point x="62" y="61" type="line" smooth="yes"/>
      <point x="29" y="-19"/>
      <point x="69" y="-115"/>
      <point x="149" y="-148" type="curve" smooth="yes"/>
      <point x="229" y="-181"/>
      <point x="325" y="-141"/>
    </contour>
  </outline>
</glyph>
<glyph name="z" format="1">
  <advance width="1019"/>
  <unicode hex="007A"/>
  <outline>
    <contour>
      <point x="943" y="-89" type="curve" smooth="yes"/>
      <point x="991" y="-17"/>
      <point x="971" y="85"/>
      <point x="899" y="133" type="curve" smooth="yes"/>
      <point x="619" y="320" type="line"/>
      <point x="906" y="581" type="line" smooth="yes"/>
      <point x="1013" y="679"/>
      <point x="968" y="833"/>
      <point x="825" y="857" type="curve" smooth="yes"/>
      <point x="237" y="958" type="line" smooth="yes"/>
      <point x="152" y="972"/>
      <point x="67" y="912"/>
      <point x="52" y="827" type="curve" smooth="yes"/>
      <point x="38" y="742"/>
      <point x="98" y="657"/>
      <point x="183" y="642" type="curve" smooth="yes"/>
      <point x="448" y="597" type="line"/>
      <point x="252" y="418" type="line" smooth="yes"/>
      <point x="171" y="344"/>
      <point x="180" y="228"/>
      <point x="271" y="167" type="curve" smooth="yes"/>
      <point x="721" y="-133" type="line" smooth="yes"/>
      <point x="793" y="-181"/>
      <point x="895" y="-161"/>
    </contour>
  </outline>
</glyph>
<glyph name="braceleft" format="1">
  <advance width="871"/>
  <unicode hex="007B"/>
  <outline>
    <contour>
      <point x="651" y="-162" type="curve" smooth="yes"/>
      <point x="661" y="-162" type="line" smooth="yes"/>
      <point x="747" y="-162"/>
      <point x="821" y="-88"/>
      <point x="821" y="-2" type="curve" smooth="yes"/>
      <point x="821" y="59"/>
      <point x="784" y="114"/>
      <point x="732" y="140" type="curve"/>
      <point x="450" y="399" type="line"/>
      <point x="767" y="678" type="line" smooth="yes"/>
      <point x="832" y="735"/>
      <point x="838" y="839"/>
      <point x="781" y="904" type="curve" smooth="yes"/>
      <point x="724" y="969"/>
      <point x="620" y="975"/>
      <point x="555" y="918" type="curve" smooth="yes"/>
      <point x="105" y="521" type="line" smooth="yes"/>
      <point x="32" y="456"/>
      <point x="31" y="349"/>
      <point x="103" y="283" type="curve" smooth="yes"/>
      <point x="543" y="-120" type="line" smooth="yes"/>
      <point x="568" y="-143"/>
      <point x="617" y="-162"/>
    </contour>
  </outline>
</glyph>
<glyph name="braceright" format="1">
  <advance width="871"/>
  <unicode hex="007D"/>
  <outline>
    <contour>
      <point x="210" y="-161" type="curve" smooth="yes"/>
      <point x="220" y="-161" type="line" smooth="yes"/>
      <point x="254" y="-161"/>
      <point x="303" y="-142"/>
      <point x="328" y="-119" type="curve" smooth="yes"/>
      <point x="768" y="284" type="line" smooth="yes"/>
      <point x="840" y="350"/>
      <point x="839" y="457"/>
      <point x="766" y="522" type="curve" smooth="yes"/>
      <point x="316" y="919" type="line" smooth="yes"/>
      <point x="251" y="976"/>
      <point x="147" y="970"/>
      <point x="90" y="905" type="curve" smooth="yes"/>
      <point x="33" y="840"/>
      <point x="39" y="736"/>
      <point x="104" y="679" type="curve" smooth="yes"/>
      <point x="421" y="400" type="line"/>
      <point x="139" y="141" type="line"/>
      <point x="87" y="115"/>
      <point x="50" y="60"/>
      <point x="50" y="-1" type="curve" smooth="yes"/>
      <point x="50" y="-87"/>
      <point x="124" y="-161"/>
    </contour>
  </outline>
</glyph>
<glyph name="asciitilde" format="1">
  <advance width="1020"/>
  <unicode hex="007E"/>
  <outline>
    <contour>
      <point x="237" y="-55" type="curve" smooth="yes"/>
      <point x="825" y="45" type="line" smooth="yes"/>
      <point x="890" y="56"/>
      <point x="950" y="119"/>
      <point x="957" y="185" type="curve" smooth="yes"/>
      <point x="969" y="284" type="line" smooth="yes"/>
      <point x="979" y="370"/>
      <point x="914" y="452"/>
      <point x="829" y="462" type="curve" smooth="yes"/>
      <point x="749" y="471"/>
      <point x="674" y="417"/>
      <point x="655" y="341" type="curve"/>
      <point x="183" y="261" type="line" smooth="yes"/>
      <point x="98" y="246"/>
      <point x="38" y="161"/>
      <point x="52" y="76" type="curve" smooth="yes"/>
      <point x="67" y="-9"/>
      <point x="152" y="-69"/>
    </contour>
  </outline>
</glyph>
<glyph name="sterling" format="1">
  <advance width="770"/>
  <unicode hex="00A3"/>
  <outline>
    <contour>
      <point x="614" y="-150" type="curve" smooth="yes"/>
      <point x="695" y="-121"/>
      <point x="740" y="-27"/>
      <point x="711" y="55" type="curve" smooth="yes"/>
      <point x="626" y="292" type="line"/>
      <point x="653" y="321"/>
      <point x="670" y="360"/>
      <point x="670" y="401" type="curve" smooth="yes"/>
      <point x="670" y="470"/>
      <point x="623" y="530"/>
      <point x="561" y="552" type="curve"/>
      <point x="683" y="698" type="line" smooth="yes"/>
      <point x="738" y="765"/>
      <point x="729" y="868"/>
      <point x="663" y="924" type="curve" smooth="yes"/>
      <point x="596" y="979"/>
      <point x="493" y="970"/>
      <point x="437" y="904" type="curve" smooth="yes"/>
      <point x="237" y="664" type="line" smooth="yes"/>
      <point x="216" y="638"/>
      <point x="203" y="599"/>
      <point x="202" y="561" type="curve"/>
      <point x="119" y="556"/>
      <point x="50" y="485"/>
      <point x="50" y="401" type="curve" smooth="yes"/>
      <point x="50" y="315"/>
      <point x="124" y="241"/>
      <point x="210" y="241" type="curve" smooth="yes"/>
      <point x="304" y="241" type="line"/>
      <point x="409" y="-53" type="line" smooth="yes"/>
      <point x="438" y="-134"/>
      <point x="532" y="-179"/>
    </contour>
  </outline>
</glyph>
<glyph name="section" format="1">
  <advance width="1020"/>
  <unicode hex="00A7"/>
  <outline>
    <contour>
      <point x="215" y="43" type="curve" smooth="yes"/>
      <point x="767" y="59" type="line" smooth="yes"/>
      <point x="931" y="64"/>
      <point x="990" y="248"/>
      <point x="858" y="347" type="curve" smooth="yes"/>
      <point x="733" y="441" type="line"/>
      <point x="815" y="443" type="line" smooth="yes"/>
      <point x="901" y="446"/>
      <point x="972" y="521"/>
      <point x="970" y="608" type="curve" smooth="yes"/>
      <point x="967" y="694"/>
      <point x="892" y="765"/>
      <point x="805" y="763" type="curve" smooth="yes"/>
      <point x="253" y="747" type="line" smooth="yes"/>
      <point x="89" y="742"/>
      <point x="30" y="558"/>
      <point x="162" y="459" type="curve" smooth="yes"/>
      <point x="287" y="365" type="line"/>
      <point x="205" y="363" type="line" smooth="yes"/>
      <point x="119" y="360"/>
      <point x="48" y="285"/>
      <point x="50" y="198" type="curve" smooth="yes"/>
      <point x="53" y="112"/>
      <point x="128" y="41"/>
    </contour>
  </outline>
</glyph>
<glyph name="guillemotleft" format="1">
  <advance width="620"/>
  <unicode hex="00AB"/>
  <outline>
    <contour>
      <point x="410" y="-163" type="curve" smooth="yes"/>
      <point x="496" y="-163"/>
      <point x="570" y="-89"/>
      <point x="570" y="-3" type="curve" smooth="yes"/>
      <point x="570" y="397" type="line" smooth="yes"/>
      <point x="570" y="483"/>
      <point x="496" y="557"/>
      <point x="410" y="557" type="curve" smooth="yes"/>
      <point x="373" y="557"/>
      <point x="338" y="543"/>
      <point x="310" y="521" type="curve"/>
      <point x="282" y="543"/>
      <point x="247" y="557"/>
      <point x="210" y="557" type="curve" smooth="yes"/>
      <point x="124" y="557"/>
      <point x="50" y="483"/>
      <point x="50" y="397" type="curve" smooth="yes"/>
      <point x="50" y="-3" type="line" smooth="yes"/>
      <point x="50" y="-89"/>
      <point x="124" y="-163"/>
      <point x="210" y="-163" type="curve" smooth="yes"/>
      <point x="247" y="-163"/>
      <point x="282" y="-149"/>
      <point x="310" y="-127" type="curve"/>
      <point x="338" y="-149"/>
      <point x="373" y="-163"/>
    </contour>
  </outline>
</glyph>
<glyph name="degree" format="1">
  <advance width="420"/>
  <unicode hex="00B0"/>
  <outline>
    <contour>
      <point x="210" y="353" type="curve" smooth="yes"/>
      <point x="296" y="353"/>
      <point x="370" y="427"/>
      <point x="370" y="513" type="curve" smooth="yes"/>
      <point x="370" y="523" type="line" smooth="yes"/>
      <point x="370" y="609"/>
      <point x="296" y="683"/>
      <point x="210" y="683" type="curve" smooth="yes"/>
      <point x="124" y="683"/>
      <point x="50" y="609"/>
      <point x="50" y="523" type="curve" smooth="yes"/>
      <point x="50" y="513" type="line" smooth="yes"/>
      <point x="50" y="427"/>
      <point x="124" y="353"/>
    </contour>
  </outline>
</glyph>
<glyph name="acute" format="1">
  <advance width="718"/>
  <unicode hex="00B4"/>
  <outline>
    <contour>
      <point x="76" y="839" type="curve" smooth="yes"/>
      <point x="124" y="767"/>
      <point x="226" y="747"/>
      <point x="298" y="795" type="curve" smooth="yes"/>
      <point x="598" y="995" type="line" smooth="yes"/>
      <point x="670" y="1043"/>
      <point x="690" y="1145"/>
      <point x="642" y="1217" type="curve" smooth="yes"/>
      <point x="594" y="1289"/>
      <point x="492" y="1309"/>
      <point x="420" y="1261" type="curve" smooth="yes"/>
      <point x="120" y="1061" type="line" smooth="yes"/>
      <point x="48" y="1013"/>
      <point x="28" y="911"/>
    </contour>
  </outline>
</glyph>
<glyph name="paragraph" format="1">
  <advance width="620"/>
  <unicode hex="00B6"/>
  <outline>
    <contour>
      <point x="410" y="-160" type="curve" smooth="yes"/>
      <point x="496" y="-160"/>
      <point x="570" y="-86"/>
      <point x="570" y="0" type="curve" smooth="yes"/>
      <point x="570" y="40" type="line" smooth="yes"/>
      <point x="570" y="55"/>
      <point x="566" y="79"/>
      <point x="561" y="94" type="curve" smooth="yes"/>
      <point x="361" y="654" type="line" smooth="yes"/>
      <point x="297" y="832"/>
      <point x="50" y="789"/>
      <point x="50" y="600" type="curve" smooth="yes"/>
      <point x="50" y="0" type="line" smooth="yes"/>
      <point x="50" y="-86"/>
      <point x="124" y="-160"/>
      <point x="210" y="-160" type="curve" smooth="yes"/>
      <point x="247" y="-160"/>
      <point x="282" y="-146"/>
      <point x="310" y="-124" type="curve"/>
      <point x="338" y="-146"/>
      <point x="373" y="-160"/>
    </contour>
  </outline>
</glyph>
<glyph name="guillemotright" format="1">
  <advance width="620"/>
  <unicode hex="00BB"/>
  <outline>
    <contour>
      <point x="410" y="-159" type="curve" smooth="yes"/>
      <point x="496" y="-159"/>
      <point x="570" y="-85"/>
      <point x="570" y="1" type="curve" smooth="yes"/>
      <point x="570" y="401" type="line" smooth="yes"/>
      <point x="570" y="487"/>
      <point x="496" y="561"/>
      <point x="410" y="561" type="curve" smooth="yes"/>
      <point x="373" y="561"/>
      <point x="338" y="547"/>
      <point x="310" y="525" type="curve"/>
      <point x="282" y="547"/>
      <point x="247" y="561"/>
      <point x="210" y="561" type="curve" smooth="yes"/>
      <point x="124" y="561"/>
      <point x="50" y="487"/>
      <point x="50" y="401" type="curve" smooth="yes"/>
      <point x="50" y="1" type="line" smooth="yes"/>
      <point x="50" y="-85"/>
      <point x="124" y="-159"/>
      <point x="210" y="-159" type="curve" smooth="yes"/>
      <point x="247" y="-159"/>
      <point x="282" y="-145"/>
      <point x="310" y="-123" type="curve"/>
      <point x="338" y="-145"/>
      <point x="373" y="-159"/>
    </contour>
  </outline>
</glyph>
<glyph name="Agrave" format="1">
  <advance width="1019"/>
  <unicode hex="00C0"/>
  <outline>
    <contour>
      <point x="809" y="-164" type="curve" smooth="yes"/>
      <point x="895" y="-164"/>
      <point x="969" y="-90"/>
      <point x="969" y="-4" type="curve" smooth="yes"/>
      <point x="969" y="360" type="line" smooth="yes"/>
      <point x="969" y="395"/>
      <point x="950" y="444"/>
      <point x="927" y="469" type="curve" smooth="yes"/>
      <point x="614" y="808" type="line"/>
      <point x="625" y="817"/>
      <point x="634" y="827"/>
      <point x="642" y="839" type="curve" smooth="yes"/>
      <point x="690" y="911"/>
      <point x="670" y="1013"/>
      <point x="598" y="1061" type="curve" smooth="yes"/>
      <point x="298" y="1261" type="line" smooth="yes"/>
      <point x="226" y="1309"/>
      <point x="124" y="1289"/>
      <point x="76" y="1217" type="curve" smooth="yes"/>
      <point x="28" y="1145"/>
      <point x="48" y="1043"/>
      <point x="120" y="995" type="curve" smooth="yes"/>
      <point x="276" y="891" type="line"/>
      <point x="268" y="878"/>
      <point x="260" y="862"/>
      <point x="255" y="846" type="curve" smooth="yes"/>
      <point x="69" y="276" type="line" smooth="yes"/>
      <point x="28" y="149"/>
      <point x="123" y="43"/>
      <point x="253" y="69" type="curve" smooth="yes"/>
      <point x="649" y="150" type="line"/>
      <point x="649" y="-4" type="line" smooth="yes"/>
      <point x="649" y="-90"/>
      <point x="723" y="-164"/>
    </contour>
    <contour>
      <point x="459" y="438" type="line"/>
      <point x="475" y="487" type="line"/>
      <point x="510" y="448" type="line"/>
    </contour>
  </outline>
</glyph>
<glyph name="Aacute" format="1">
  <advance width="1010"/>
  <unicode hex="00C1"/>
  <outline>
    <contour>
      <point x="800" y="-164" type="curve" smooth="yes"/>
      <point x="886" y="-164"/>
      <point x="960" y="-90"/>
      <point x="960" y="-4" type="curve" smooth="yes"/>
      <point x="960" y="360" type="line" smooth="yes"/>
      <point x="960" y="395"/>
      <point x="941" y="444"/>
      <point x="918" y="469" type="curve" smooth="yes"/>
      <point x="606" y="806" type="line"/>
      <point x="889" y="995" type="line" smooth="yes"/>
      <point x="961" y="1043"/>
      <point x="981" y="1145"/>
      <point x="933" y="1217" type="curve" smooth="yes"/>
      <point x="885" y="1289"/>
      <point x="783" y="1309"/>
      <point x="711" y="1261" type="curve" smooth="yes"/>
      <point x="411" y="1061" type="line" smooth="yes"/>
      <point x="374" y="1036"/>
      <point x="350" y="996"/>
      <point x="343" y="953" type="curve"/>
      <point x="300" y="937"/>
      <point x="264" y="900"/>
      <point x="246" y="846" type="curve" smooth="yes"/>
      <point x="60" y="276" type="line" smooth="yes"/>
      <point x="19" y="149"/>
      <point x="114" y="43"/>
      <point x="244" y="69" type="curve" smooth="yes"/>
      <point x="640" y="150" type="line"/>
      <point x="640" y="-4" type="line" smooth="yes"/>
      <point x="640" y="-90"/>
      <point x="714" y="-164"/>
    </contour>
    <contour>
      <point x="450" y="438" type="line"/>
      <point x="466" y="487" type="line"/>
      <point x="501" y="448" type="line"/>
    </contour>
  </outline>
</glyph>
<glyph name="Acircumflex" format="1">
  <advance width="1020"/>
  <unicode hex="00C2"/>
  <outline>
    <contour>
      <point x="810" y="-164" type="curve" smooth="yes"/>
      <point x="896" y="-164"/>
      <point x="970" y="-90"/>
      <point x="970" y="-4" type="curve" smooth="yes"/>
      <point x="970" y="360" type="line" smooth="yes"/>
      <point x="970" y="395"/>
      <point x="951" y="444"/>
      <point x="928" y="469" type="curve" smooth="yes"/>
      <point x="652" y="768" type="line"/>
      <point x="810" y="768" type="line" smooth="yes"/>
      <point x="896" y="768"/>
      <point x="970" y="842"/>
      <point x="970" y="928" type="curve" smooth="yes"/>
      <point x="970" y="1014"/>
      <point x="896" y="1088"/>
      <point x="810" y="1088" type="curve" smooth="yes"/>
      <point x="210" y="1088" type="line" smooth="yes"/>
      <point x="124" y="1088"/>
      <point x="50" y="1014"/>
      <point x="50" y="928" type="curve" smooth="yes"/>
      <point x="50" y="842"/>
      <point x="124" y="768"/>
      <point x="210" y="768" type="curve" smooth="yes"/>
      <point x="231" y="768" type="line"/>
      <point x="70" y="276" type="line" smooth="yes"/>
      <point x="29" y="149"/>
      <point x="124" y="43"/>
      <point x="254" y="69" type="curve" smooth="yes"/>
      <point x="650" y="150" type="line"/>
      <point x="650" y="-4" type="line" smooth="yes"/>
      <point x="650" y="-90"/>
      <point x="724" y="-164"/>
    </contour>
    <contour>
      <point x="460" y="438" type="line"/>
      <point x="476" y="487" type="line"/>
      <point x="511" y="448" type="line"/>
    </contour>
  </outline>
</glyph>
<glyph name="Ccedilla" format="1">
  <advance width="1015"/>
  <unicode hex="00C7"/>
  <outline>
    <contour>
      <point x="420" y="-41" type="curve" smooth="yes"/>
      <point x="838" y="44" type="line" smooth="yes"/>
      <point x="922" y="61"/>
      <point x="980" y="148"/>
      <point x="963" y="233" type="curve" smooth="yes"/>
      <point x="946" y="317"/>
      <point x="859" y="375"/>
      <point x="774" y="358" type="curve" smooth="yes"/>
      <point x="498" y="302" type="line"/>
      <point x="440" y="492" type="line"/>
      <point x="783" y="443" type="line" smooth="yes"/>
      <point x="869" y="430"/>
      <point x="952" y="493"/>
      <point x="964" y="578" type="curve" smooth="yes"/>
      <point x="977" y="664"/>
      <point x="914" y="747"/>
      <point x="829" y="759" type="curve" smooth="yes"/>
      <point x="235" y="845" type="line" smooth="yes"/>
      <point x="110" y="863"/>
      <point x="22" y="761"/>
      <point x="59" y="640" type="curve" smooth="yes"/>
      <point x="235" y="69" type="line" smooth="yes"/>
      <point x="259" y="-7"/>
      <point x="341" y="-57"/>
    </contour>
  </outline>
</glyph>
<glyph name="Egrave" format="1">
  <advance width="1023"/>
  <unicode hex="00C8"/>
  <outline>
    <contour>
      <point x="642" y="839" type="curve" smooth="yes"/>
      <point x="690" y="911"/>
      <point x="670" y="1013"/>
      <point x="598" y="1061" type="curve" smooth="yes"/>
      <point x="298" y="1261" type="line" smooth="yes"/>
      <point x="226" y="1309"/>
      <point x="124" y="1289"/>
      <point x="76" y="1217" type="curve" smooth="yes"/>
      <point x="28" y="1145"/>
      <point x="48" y="1043"/>
      <point x="120" y="995" type="curve" smooth="yes"/>
      <point x="420" y="795" type="line" smooth="yes"/>
      <point x="492" y="747"/>
      <point x="594" y="767"/>
    </contour>
    <contour>
      <point x="729" y="-114" type="curve" smooth="yes"/>
      <point x="927" y="82" type="line" smooth="yes"/>
      <point x="988" y="143"/>
      <point x="988" y="247"/>
      <point x="928" y="309" type="curve" smooth="yes"/>
      <point x="867" y="370"/>
      <point x="763" y="370"/>
      <point x="701" y="310" type="curve" smooth="yes"/>
      <point x="617" y="226" type="line"/>
      <point x="541" y="305" type="line"/>
      <point x="878" y="456" type="line" smooth="yes"/>
      <point x="957" y="491"/>
      <point x="994" y="589"/>
      <point x="959" y="667" type="curve" smooth="yes"/>
      <point x="924" y="746"/>
      <point x="826" y="783"/>
      <point x="748" y="748" type="curve" smooth="yes"/>
      <point x="201" y="503" type="line" smooth="yes"/>
      <point x="92" y="455"/>
      <point x="69" y="331"/>
      <point x="152" y="246" type="curve" smooth="yes"/>
      <point x="499" y="-112" type="line" smooth="yes"/>
      <point x="531" y="-144"/>
      <point x="573" y="-159"/>
      <point x="616" y="-159" type="curve"/>
      <point x="657" y="-159"/>
      <point x="698" y="-144"/>
    </contour>
  </outline>
</glyph>
<glyph name="Ecircumflex" format="1">
  <advance width="1024"/>
  <unicode hex="00CA"/>
  <outline>
    <contour>
      <point x="50" y="928" type="curve" smooth="yes"/>
      <point x="50" y="842"/>
      <point x="124" y="768"/>
      <point x="210" y="768" type="curve" smooth="yes"/>
      <point x="810" y="768" type="line" smooth="yes"/>
      <point x="896" y="768"/>
      <point x="970" y="842"/>
      <point x="970" y="928" type="curve" smooth="yes"/>
      <point x="970" y="1014"/>
      <point x="896" y="1088"/>
      <point x="810" y="1088" type="curve" smooth="yes"/>
      <point x="210" y="1088" type="line" smooth="yes"/>
      <point x="124" y="1088"/>
      <point x="50" y="1014"/>
    </contour>
    <contour>
      <point x="730" y="-114" type="curve" smooth="yes"/>
      <point x="928" y="82" type="line" smooth="yes"/>
      <point x="989" y="143"/>
      <point x="989" y="247"/>
      <point x="929" y="309" type="curve" smooth="yes"/>
      <point x="868" y="370"/>
      <point x="764" y="370"/>
      <point x="702" y="310" type="curve" smooth="yes"/>
      <point x="618" y="226" type="line"/>
      <point x="542" y="305" type="line"/>
      <point x="879" y="456" type="line" smooth="yes"/>
      <point x="958" y="491"/>
      <point x="995" y="589"/>
      <point x="960" y="667" type="curve" smooth="yes"/>
      <point x="925" y="746"/>
      <point x="827" y="783"/>
      <point x="749" y="748" type="curve" smooth="yes"/>
      <point x="202" y="503" type="line" smooth="yes"/>
      <point x="93" y="455"/>
      <point x="70" y="331"/>
      <point x="153" y="246" type="curve" smooth="yes"/>
      <point x="500" y="-112" type="line" smooth="yes"/>
      <point x="532" y="-144"/>
      <point x="574" y="-159"/>
      <point x="617" y="-159" type="curve"/>
      <point x="658" y="-159"/>
      <point x="699" y="-144"/>
    </contour>
  </outline>
</glyph>
<glyph name="Icircumflex" format="1">
  <advance width="1023"/>
  <unicode hex="00CE"/>
  <outline>
    <contour>
      <point x="347" y="-82" type="curve" smooth="yes"/>
      <point x="636" y="410" type="line"/>
      <point x="920" y="684" type="line" smooth="yes"/>
      <point x="967" y="729"/>
      <point x="980" y="800"/>
      <point x="957" y="859" type="curve"/>
      <point x="967" y="880"/>
      <point x="973" y="904"/>
      <point x="973" y="928" type="curve" smooth="yes"/>
      <point x="973" y="1014"/>
      <point x="899" y="1088"/>
      <point x="813" y="1088" type="curve" smooth="yes"/>
      <point x="213" y="1088" type="line" smooth="yes"/>
      <point x="127" y="1088"/>
      <point x="53" y="1014"/>
      <point x="53" y="928" type="curve" smooth="yes"/>
      <point x="53" y="842"/>
      <point x="127" y="768"/>
      <point x="213" y="768" type="curve" smooth="yes"/>
      <point x="546" y="768" type="line"/>
      <point x="398" y="625" type="line" smooth="yes"/>
      <point x="389" y="616"/>
      <point x="377" y="601"/>
      <point x="371" y="591" type="curve" smooth="yes"/>
      <point x="71" y="80" type="line" smooth="yes"/>
      <point x="27" y="6"/>
      <point x="53" y="-95"/>
      <point x="128" y="-139" type="curve" smooth="yes"/>
      <point x="202" y="-183"/>
      <point x="303" y="-157"/>
    </contour>
  </outline>
</glyph>
<glyph name="Ntilde" format="1">
  <advance width="1024"/>
  <unicode hex="00D1"/>
  <outline>
    <contour>
      <point x="630" y="787" type="line" smooth="yes"/>
      <point x="619" y="804"/>
      <point x="607" y="819"/>
      <point x="593" y="830" type="curve"/>
      <point x="656" y="841" type="line"/>
      <point x="652" y="827"/>
      <point x="650" y="813"/>
      <point x="650" y="799" type="curve" smooth="yes"/>
      <point x="650" y="755" type="line"/>
    </contour>
    <contour>
      <point x="370" y="-1" type="curve" smooth="yes"/>
      <point x="370" y="138" type="line"/>
      <point x="504" y="385" type="line"/>
      <point x="674" y="114" type="line" smooth="yes"/>
      <point x="766" y="-33"/>
      <point x="970" y="26"/>
      <point x="970" y="199" type="curve" smooth="yes"/>
      <point x="970" y="799" type="line" smooth="yes"/>
      <point x="970" y="846"/>
      <point x="949" y="888"/>
      <point x="915" y="918" type="curve"/>
      <point x="940" y="943"/>
      <point x="957" y="976"/>
      <point x="961" y="1010" type="curve" smooth="yes"/>
      <point x="973" y="1109" type="line" smooth="yes"/>
      <point x="983" y="1195"/>
      <point x="918" y="1277"/>
      <point x="833" y="1287" type="curve" smooth="yes"/>
      <point x="753" y="1296"/>
      <point x="678" y="1242"/>
      <point x="659" y="1166" type="curve"/>
      <point x="187" y="1086" type="line" smooth="yes"/>
      <point x="102" y="1071"/>
      <point x="42" y="986"/>
      <point x="56" y="901" type="curve" smooth="yes"/>
      <point x="71" y="816"/>
      <point x="156" y="756"/>
      <point x="241" y="770" type="curve" smooth="yes"/>
      <point x="361" y="791" type="line"/>
      <point x="358" y="787"/>
      <point x="356" y="783"/>
      <point x="354" y="778" type="curve" smooth="yes"/>
      <point x="69" y="255" type="line" smooth="yes"/>
      <point x="59" y="236"/>
      <point x="50" y="201"/>
      <point x="50" y="179" type="curve" smooth="yes"/>
      <point x="50" y="-1" type="line" smooth="yes"/>
      <point x="50" y="-87"/>
      <point x="124" y="-161"/>
      <point x="210" y="-161" type="curve" smooth="yes"/>
      <point x="296" y="-161"/>
      <point x="370" y="-87"/>
    </contour>
  </outline>
</glyph>
<glyph name="Ograve" format="1">
  <advance width="1020"/>
  <unicode hex="00D2"/>
  <outline>
    <contour>
      <point x="764" y="-54" type="curve" smooth="yes"/>
      <point x="961" y="506" type="line" smooth="yes"/>
      <point x="991" y="592"/>
      <point x="945" y="685"/>
      <point x="857" y="712" type="curve" smooth="yes"/>
      <point x="594" y="793" type="line"/>
      <point x="613" y="805"/>
      <point x="629" y="820"/>
      <point x="642" y="839" type="curve" smooth="yes"/>
      <point x="690" y="911"/>
      <point x="670" y="1013"/>
      <point x="598" y="1061" type="curve" smooth="yes"/>
      <point x="298" y="1261" type="line" smooth="yes"/>
      <point x="226" y="1309"/>
      <point x="124" y="1289"/>
      <point x="76" y="1217" type="curve" smooth="yes"/>
      <point x="28" y="1145"/>
      <point x="48" y="1043"/>
      <point x="120" y="995" type="curve" smooth="yes"/>
      <point x="274" y="893" type="line"/>
      <point x="173" y="916"/>
      <point x="84" y="850"/>
      <point x="79" y="744" type="curve" smooth="yes"/>
      <point x="52" y="147" type="line" smooth="yes"/>
      <point x="49" y="82"/>
      <point x="96" y="11"/>
      <point x="158" y="-11" type="curve" smooth="yes"/>
      <point x="549" y="-152" type="line" smooth="yes"/>
      <point x="567" y="-158"/>
      <point x="587" y="-161"/>
      <point x="606" y="-160" type="curve"/>
      <point x="674" y="-163"/>
      <point x="741" y="-121"/>
    </contour>
    <contour>
      <point x="514" y="201" type="line"/>
      <point x="377" y="250" type="line"/>
      <point x="389" y="522" type="line"/>
      <point x="604" y="455" type="line"/>
    </contour>
  </outline>
</glyph>
<glyph name="Otilde" format="1">
  <advance width="1021"/>
  <unicode hex="00D5"/>
  <outline>
    <contour>
      <point x="765" y="-54" type="curve" smooth="yes"/>
      <point x="962" y="506" type="line" smooth="yes"/>
      <point x="992" y="592"/>
      <point x="946" y="685"/>
      <point x="858" y="712" type="curve" smooth="yes"/>
      <point x="517" y="818" type="line"/>
      <point x="825" y="870" type="line" smooth="yes"/>
      <point x="890" y="881"/>
      <point x="950" y="944"/>
      <point x="957" y="1010" type="curve" smooth="yes"/>
      <point x="969" y="1109" type="line" smooth="yes"/>
      <point x="979" y="1195"/>
      <point x="914" y="1277"/>
      <point x="829" y="1287" type="curve" smooth="yes"/>
      <point x="749" y="1296"/>
      <point x="674" y="1242"/>
      <point x="655" y="1166" type="curve"/>
      <point x="183" y="1086" type="line" smooth="yes"/>
      <point x="98" y="1071"/>
      <point x="38" y="986"/>
      <point x="52" y="901" type="curve" smooth="yes"/>
      <point x="58" y="867"/>
      <point x="75" y="837"/>
      <point x="98" y="815" type="curve"/>
      <point x="88" y="794"/>
      <point x="81" y="770"/>
      <point x="80" y="744" type="curve" smooth="yes"/>
      <point x="53" y="147" type="line" smooth="yes"/>
      <point x="50" y="82"/>
      <point x="97" y="11"/>
      <point x="159" y="-11" type="curve" smooth="yes"/>
      <point x="550" y="-152" type="line" smooth="yes"/>
      <point x="568" y="-158"/>
      <point x="588" y="-161"/>
      <point x="607" y="-160" type="curve"/>
      <point x="675" y="-163"/>
      <point x="742" y="-121"/>
    </contour>
    <contour>
      <point x="515" y="201" type="line"/>
      <point x="378" y="250" type="line"/>
      <point x="390" y="522" type="line"/>
      <point x="605" y="455" type="line"/>
    </contour>
  </outline>
</glyph>
<glyph name="Ugrave" format="1">
  <advance width="1019"/>
  <unicode hex="00D9"/>
  <outline>
    <contour>
      <point x="969" y="199" type="curve" smooth="yes"/>
      <point x="969" y="799" type="line" smooth="yes"/>
      <point x="969" y="885"/>
      <point x="895" y="959"/>
      <point x="809" y="959" type="curve" smooth="yes"/>
      <point x="723" y="959"/>
      <point x="649" y="885"/>
      <point x="649" y="799" type="curve" smooth="yes"/>
      <point x="649" y="367" type="line"/>
      <point x="370" y="381" type="line"/>
      <point x="370" y="799" type="line" smooth="yes"/>
      <point x="370" y="810"/>
      <point x="369" y="821"/>
      <point x="366" y="832" type="curve"/>
      <point x="422" y="795" type="line" smooth="yes"/>
      <point x="494" y="747"/>
      <point x="596" y="767"/>
      <point x="644" y="839" type="curve" smooth="yes"/>
      <point x="692" y="911"/>
      <point x="672" y="1013"/>
      <point x="600" y="1061" type="curve" smooth="yes"/>
      <point x="300" y="1261" type="line" smooth="yes"/>
      <point x="228" y="1309"/>
      <point x="126" y="1289"/>
      <point x="78" y="1217" type="curve" smooth="yes"/>
      <point x="30" y="1145"/>
      <point x="50" y="1043"/>
      <point x="122" y="995" type="curve" smooth="yes"/>
      <point x="180" y="956" type="line"/>
      <point x="107" y="942"/>
      <point x="50" y="875"/>
      <point x="50" y="799" type="curve" smooth="yes"/>
      <point x="50" y="229" type="line" smooth="yes"/>
      <point x="50" y="145"/>
      <point x="118" y="73"/>
      <point x="202" y="69" type="curve" smooth="yes"/>
      <point x="801" y="39" type="line" smooth="yes"/>
      <point x="894" y="35"/>
      <point x="969" y="106"/>
    </contour>
  </outline>
</glyph>
<glyph name="Uacute" format="1">
  <advance width="1020"/>
  <unicode hex="00DA"/>
  <outline>
    <contour>
      <point x="969" y="199" type="curve" smooth="yes"/>
      <point x="969" y="799" type="line" smooth="yes"/>
      <point x="969" y="875"/>
      <point x="913" y="940"/>
      <point x="841" y="956" type="curve"/>
      <point x="900" y="995" type="line" smooth="yes"/>
      <point x="972" y="1043"/>
      <point x="992" y="1145"/>
      <point x="944" y="1217" type="curve" smooth="yes"/>
      <point x="896" y="1289"/>
      <point x="794" y="1309"/>
      <point x="722" y="1261" type="curve" smooth="yes"/>
      <point x="422" y="1061" type="line" smooth="yes"/>
      <point x="350" y="1013"/>
      <point x="330" y="911"/>
      <point x="378" y="839" type="curve" smooth="yes"/>
      <point x="426" y="767"/>
      <point x="528" y="747"/>
      <point x="600" y="795" type="curve" smooth="yes"/>
      <point x="652" y="830" type="line"/>
      <point x="650" y="820"/>
      <point x="649" y="810"/>
      <point x="649" y="799" type="curve" smooth="yes"/>
      <point x="649" y="367" type="line"/>
      <point x="370" y="381" type="line"/>
      <point x="370" y="799" type="line" smooth="yes"/>
      <point x="370" y="885"/>
      <point x="296" y="959"/>
      <point x="210" y="959" type="curve" smooth="yes"/>
      <point x="124" y="959"/>
      <point x="50" y="885"/>
      <point x="50" y="799" type="curve" smooth="yes"/>
      <point x="50" y="229" type="line" smooth="yes"/>
      <point x="50" y="145"/>
      <point x="118" y="73"/>
      <point x="202" y="69" type="curve" smooth="yes"/>
      <point x="801" y="39" type="line" smooth="yes"/>
      <point x="894" y="35"/>
      <point x="969" y="106"/>
    </contour>
  </outline>
</glyph>
<glyph name="atilde" format="1">
  <advance width="1020"/>
  <unicode hex="00E3"/>
  <outline>
    <contour>
      <point x="810" y="-164" type="curve" smooth="yes"/>
      <point x="896" y="-164"/>
      <point x="970" y="-90"/>
      <point x="970" y="-4" type="curve" smooth="yes"/>
      <point x="970" y="360" type="line" smooth="yes"/>
      <point x="970" y="395"/>
      <point x="951" y="444"/>
      <point x="928" y="469" type="curve" smooth="yes"/>
      <point x="593" y="831" type="line"/>
      <point x="825" y="870" type="line" smooth="yes"/>
      <point x="890" y="881"/>
      <point x="950" y="944"/>
      <point x="957" y="1010" type="curve" smooth="yes"/>
      <point x="969" y="1109" type="line" smooth="yes"/>
      <point x="979" y="1195"/>
      <point x="914" y="1277"/>
      <point x="829" y="1287" type="curve" smooth="yes"/>
      <point x="749" y="1296"/>
      <point x="674" y="1242"/>
      <point x="655" y="1166" type="curve"/>
      <point x="183" y="1086" type="line" smooth="yes"/>
      <point x="98" y="1071"/>
      <point x="38" y="986"/>
      <point x="52" y="901" type="curve" smooth="yes"/>
      <point x="66" y="818"/>
      <point x="148" y="759"/>
      <point x="231" y="769" type="curve"/>
      <point x="70" y="276" type="line" smooth="yes"/>
      <point x="29" y="149"/>
      <point x="124" y="43"/>
      <point x="254" y="69" type="curve" smooth="yes"/>
      <point x="650" y="150" type="line"/>
      <point x="650" y="-4" type="line" smooth="yes"/>
      <point x="650" y="-90"/>
      <point x="724" y="-164"/>
    </contour>
    <contour>
      <point x="460" y="438" type="line"/>
      <point x="476" y="487" type="line"/>
      <point x="511" y="448" type="line"/>
    </contour>
  </outline>
</glyph>
<glyph name="eacute" format="1">
  <advance width="971"/>
  <unicode hex="00E9"/>
  <outline>
    <contour>
      <point x="324" y="839" type="curve" smooth="yes"/>
      <point x="372" y="767"/>
      <point x="474" y="747"/>
      <point x="546" y="795" type="curve" smooth="yes"/>
      <point x="846" y="995" type="line" smooth="yes"/>
      <point x="918" y="1043"/>
      <point x="938" y="1145"/>
      <point x="890" y="1217" type="curve" smooth="yes"/>
      <point x="842" y="1289"/>
      <point x="740" y="1309"/>
      <point x="668" y="1261" type="curve" smooth="yes"/>
      <point x="368" y="1061" type="line" smooth="yes"/>
      <point x="296" y="1013"/>
      <point x="276" y="911"/>
    </contour>
    <contour>
      <point x="677" y="-114" type="curve" smooth="yes"/>
      <point x="875" y="82" type="line" smooth="yes"/>
      <point x="936" y="143"/>
      <point x="936" y="247"/>
      <point x="876" y="309" type="curve" smooth="yes"/>
      <point x="815" y="370"/>
      <point x="711" y="370"/>
      <point x="649" y="310" type="curve" smooth="yes"/>
      <point x="565" y="226" type="line"/>
      <point x="489" y="305" type="line"/>
      <point x="826" y="456" type="line" smooth="yes"/>
      <point x="905" y="491"/>
      <point x="942" y="589"/>
      <point x="907" y="667" type="curve" smooth="yes"/>
      <point x="872" y="746"/>
      <point x="774" y="783"/>
      <point x="696" y="748" type="curve" smooth="yes"/>
      <point x="149" y="503" type="line" smooth="yes"/>
      <point x="40" y="455"/>
      <point x="17" y="331"/>
      <point x="100" y="246" type="curve" smooth="yes"/>
      <point x="447" y="-112" type="line" smooth="yes"/>
      <point x="479" y="-144"/>
      <point x="521" y="-159"/>
      <point x="564" y="-159" type="curve"/>
      <point x="605" y="-159"/>
      <point x="646" y="-144"/>
    </contour>
  </outline>
</glyph>
<glyph name="igrave" format="1">
  <advance width="1018"/>
  <unicode hex="00EC"/>
  <outline>
    <contour>
      <point x="347" y="-82" type="curve" smooth="yes"/>
      <point x="636" y="410" type="line"/>
      <point x="920" y="684" type="line" smooth="yes"/>
      <point x="982" y="744"/>
      <point x="984" y="848"/>
      <point x="924" y="910" type="curve" smooth="yes"/>
      <point x="864" y="972"/>
      <point x="760" y="974"/>
      <point x="698" y="914" type="curve" smooth="yes"/>
      <point x="666" y="884" type="line"/>
      <point x="684" y="949"/>
      <point x="660" y="1022"/>
      <point x="602" y="1061" type="curve" smooth="yes"/>
      <point x="302" y="1261" type="line" smooth="yes"/>
      <point x="230" y="1309"/>
      <point x="128" y="1289"/>
      <point x="80" y="1217" type="curve" smooth="yes"/>
      <point x="32" y="1145"/>
      <point x="52" y="1043"/>
      <point x="124" y="995" type="curve" smooth="yes"/>
      <point x="424" y="795" type="line" smooth="yes"/>
      <point x="463" y="769"/>
      <point x="510" y="763"/>
      <point x="553" y="774" type="curve"/>
      <point x="398" y="625" type="line" smooth="yes"/>
      <point x="389" y="616"/>
      <point x="377" y="601"/>
      <point x="371" y="591" type="curve" smooth="yes"/>
      <point x="71" y="80" type="line" smooth="yes"/>
      <point x="27" y="6"/>
      <point x="53" y="-95"/>
      <point x="128" y="-139" type="curve" smooth="yes"/>
      <point x="202" y="-183"/>
      <point x="303" y="-157"/>
    </contour>
  </outline>
</glyph>
<glyph name="iacute" format="1">
  <advance width="1023"/>
  <unicode hex="00ED"/>
  <outline>
    <contour>
      <point x="347" y="-82" type="curve" smooth="yes"/>
      <point x="636" y="410" type="line"/>
      <point x="920" y="684" type="line" smooth="yes"/>
      <point x="982" y="744"/>
      <point x="984" y="848"/>
      <point x="924" y="910" type="curve" smooth="yes"/>
      <point x="901" y="934"/>
      <point x="872" y="949"/>
      <point x="842" y="955" type="curve"/>
      <point x="902" y="995" type="line" smooth="yes"/>
      <point x="974" y="1043"/>
      <point x="994" y="1145"/>
      <point x="946" y="1217" type="curve" smooth="yes"/>
      <point x="898" y="1289"/>
      <point x="796" y="1309"/>
      <point x="724" y="1261" type="curve" smooth="yes"/>
      <point x="424" y="1061" type="line" smooth="yes"/>
      <point x="352" y="1013"/>
      <point x="332" y="911"/>
      <point x="380" y="839" type="curve" smooth="yes"/>
      <point x="417" y="783"/>
      <point x="488" y="758"/>
      <point x="552" y="773" type="curve"/>
      <point x="398" y="625" type="line" smooth="yes"/>
      <point x="389" y="616"/>
      <point x="377" y="601"/>
      <point x="371" y="591" type="curve" smooth="yes"/>
      <point x="71" y="80" type="line" smooth="yes"/>
      <point x="27" y="6"/>
      <point x="53" y="-95"/>
      <point x="128" y="-139" type="curve" smooth="yes"/>
      <point x="202" y="-183"/>
      <point x="303" y="-157"/>
    </contour>
  </outline>
</glyph>
<glyph name="oacute" format="1">
  <advance width="1018"/>
  <unicode hex="00F3"/>
  <outline>
    <contour>
      <point x="762" y="-54" type="curve" smooth="yes"/>
      <point x="959" y="506" type="line" smooth="yes"/>
      <point x="989" y="592"/>
      <point x="943" y="685"/>
      <point x="855" y="712" type="curve" smooth="yes"/>
      <point x="593" y="793" type="line"/>
      <point x="596" y="795" type="line" smooth="yes"/>
      <point x="896" y="995" type="line" smooth="yes"/>
      <point x="968" y="1043"/>
      <point x="988" y="1145"/>
      <point x="940" y="1217" type="curve" smooth="yes"/>
      <point x="892" y="1289"/>
      <point x="790" y="1309"/>
      <point x="718" y="1261" type="curve" smooth="yes"/>
      <point x="418" y="1061" type="line" smooth="yes"/>
      <point x="355" y="1019"/>
      <point x="331" y="934"/>
      <point x="360" y="866" type="curve"/>
      <point x="285" y="889" type="line" smooth="yes"/>
      <point x="179" y="922"/>
      <point x="82" y="854"/>
      <point x="77" y="744" type="curve" smooth="yes"/>
      <point x="50" y="147" type="line" smooth="yes"/>
      <point x="47" y="82"/>
      <point x="94" y="11"/>
      <point x="156" y="-11" type="curve" smooth="yes"/>
      <point x="547" y="-152" type="line" smooth="yes"/>
      <point x="565" y="-158"/>
      <point x="585" y="-161"/>
      <point x="604" y="-160" type="curve"/>
      <point x="672" y="-163"/>
      <point x="739" y="-121"/>
    </contour>
    <contour>
      <point x="512" y="201" type="line"/>
      <point x="375" y="250" type="line"/>
      <point x="387" y="522" type="line"/>
      <point x="602" y="455" type="line"/>
    </contour>
  </outline>
</glyph>
<glyph name="ocircumflex" format="1">
  <advance width="1021"/>
  <unicode hex="00F4"/>
  <outline>
    <contour>
      <point x="765" y="-54" type="curve" smooth="yes"/>
      <point x="962" y="506" type="line" smooth="yes"/>
      <point x="992" y="592"/>
      <point x="946" y="685"/>
      <point x="858" y="712" type="curve" smooth="yes"/>
      <point x="677" y="768" type="line"/>
      <point x="810" y="768" type="line" smooth="yes"/>
      <point x="896" y="768"/>
      <point x="970" y="842"/>
      <point x="970" y="928" type="curve" smooth="yes"/>
      <point x="970" y="1014"/>
      <point x="896" y="1088"/>
      <point x="810" y="1088" type="curve" smooth="yes"/>
      <point x="210" y="1088" type="line" smooth="yes"/>
      <point x="124" y="1088"/>
      <point x="50" y="1014"/>
      <point x="50" y="928" type="curve" smooth="yes"/>
      <point x="50" y="884"/>
      <point x="69" y="844"/>
      <point x="98" y="815" type="curve"/>
      <point x="88" y="794"/>
      <point x="81" y="770"/>
      <point x="80" y="744" type="curve" smooth="yes"/>
      <point x="53" y="147" type="line" smooth="yes"/>
      <point x="50" y="82"/>
      <point x="97" y="11"/>
      <point x="159" y="-11" type="curve" smooth="yes"/>
      <point x="550" y="-152" type="line" smooth="yes"/>
      <point x="568" y="-158"/>
      <point x="588" y="-161"/>
      <point x="607" y="-160" type="curve"/>
      <point x="675" y="-163"/>
      <point x="742" y="-121"/>
    </contour>
    <contour>
      <point x="515" y="201" type="line"/>
      <point x="378" y="250" type="line"/>
      <point x="390" y="522" type="line"/>
      <point x="605" y="455" type="line"/>
    </contour>
  </outline>
</glyph>
<glyph name="oslash" format="1">
  <advance width="1023"/>
  <unicode hex="00F8"/>
  <outline>
    <contour>
      <point x="342" y="-95" type="curve" smooth="yes"/>
      <point x="417" y="5" type="line"/>
      <point x="536" y="-46" type="line" smooth="yes"/>
      <point x="555" y="-54"/>
      <point x="576" y="-58"/>
      <point x="596" y="-58" type="curve"/>
      <point x="599" y="-59"/>
      <point x="602" y="-59"/>
      <point x="606" y="-59" type="curve" smooth="yes"/>
      <point x="692" y="-61"/>
      <point x="767" y="11"/>
      <point x="769" y="98" type="curve" smooth="yes"/>
      <point x="777" y="485" type="line"/>
      <point x="942" y="705" type="line" smooth="yes"/>
      <point x="994" y="774"/>
      <point x="979" y="877"/>
      <point x="910" y="929" type="curve" smooth="yes"/>
      <point x="841" y="981"/>
      <point x="738" y="966"/>
      <point x="686" y="897" type="curve" smooth="yes"/>
      <point x="662" y="865" type="line"/>
      <point x="611" y="876"/>
      <point x="552" y="860"/>
      <point x="505" y="810" type="curve" smooth="yes"/>
      <point x="98" y="375" type="line" smooth="yes"/>
      <point x="26" y="298"/>
      <point x="38" y="194"/>
      <point x="117" y="138" type="curve"/>
      <point x="86" y="97" type="line" smooth="yes"/>
      <point x="34" y="28"/>
      <point x="49" y="-75"/>
      <point x="118" y="-127" type="curve" smooth="yes"/>
      <point x="187" y="-179"/>
      <point x="290" y="-164"/>
    </contour>
  </outline>
</glyph>
<glyph name="ucircumflex" format="1">
  <advance width="1021"/>
  <unicode hex="00FB"/>
  <outline>
    <contour>
      <point x="969" y="199" type="curve" smooth="yes"/>
      <point x="969" y="799" type="line" smooth="yes"/>
      <point x="969" y="821"/>
      <point x="964" y="842"/>
      <point x="956" y="861" type="curve"/>
      <point x="966" y="882"/>
      <point x="971" y="904"/>
      <point x="971" y="928" type="curve" smooth="yes"/>
      <point x="971" y="1014"/>
      <point x="897" y="1088"/>
      <point x="811" y="1088" type="curve" smooth="yes"/>
      <point x="211" y="1088" type="line" smooth="yes"/>
      <point x="125" y="1088"/>
      <point x="51" y="1014"/>
      <point x="51" y="928" type="curve" smooth="yes"/>
      <point x="51" y="906"/>
      <point x="56" y="884"/>
      <point x="65" y="865" type="curve"/>
      <point x="55" y="844"/>
      <point x="50" y="822"/>
      <point x="50" y="799" type="curve" smooth="yes"/>
      <point x="50" y="229" type="line" smooth="yes"/>
      <point x="50" y="145"/>
      <point x="118" y="73"/>
      <point x="202" y="69" type="curve" smooth="yes"/>
      <point x="801" y="39" type="line" smooth="yes"/>
      <point x="894" y="35"/>
      <point x="969" y="106"/>
    </contour>
    <contour>
      <point x="649" y="768" type="line"/>
      <point x="649" y="367" type="line"/>
      <point x="370" y="381" type="line"/>
      <point x="370" y="768" type="line"/>
    </contour>
  </outline>
</glyph>
<glyph name="circumflex" format="1">
  <advance width="1020"/>
  <unicode hex="02C6"/>
  <outline>
    <contour>
      <point x="50" y="928" type="curve" smooth="yes"/>
      <point x="50" y="842"/>
      <point x="124" y="768"/>
      <point x="210" y="768" type="curve" smooth="yes"/>
      <point x="810" y="768" type="line" smooth="yes"/>
      <point x="896" y="768"/>
      <point x="970" y="842"/>
      <point x="970" y="928" type="curve" smooth="yes"/>
      <point x="970" y="1014"/>
      <point x="896" y="1088"/>
      <point x="810" y="1088" type="curve" smooth="yes"/>
      <point x="210" y="1088" type="line" smooth="yes"/>
      <point x="124" y="1088"/>
      <point x="50" y="1014"/>
    </contour>
  </outline>
</glyph>
<glyph name="tilde" format="1">
  <advance width="1020"/>
  <unicode hex="02DC"/>
  <outline>
    <contour>
      <point x="237" y="770" type="curve" smooth="yes"/>
      <point x="825" y="870" type="line" smooth="yes"/>
      <point x="890" y="881"/>
      <point x="950" y="944"/>
      <point x="957" y="1010" type="curve" smooth="yes"/>
      <point x="969" y="1109" type="line" smooth="yes"/>
      <point x="979" y="1195"/>
      <point x="914" y="1277"/>
      <point x="829" y="1287" type="curve" smooth="yes"/>
      <point x="749" y="1296"/>
      <point x="674" y="1242"/>
      <point x="655" y="1166" type="curve"/>
      <point x="183" y="1086" type="line" smooth="yes"/>
      <point x="98" y="1071"/>
      <point x="38" y="986"/>
      <point x="52" y="901" type="curve" smooth="yes"/>
      <point x="67" y="816"/>
      <point x="152" y="756"/>
    </contour>
  </outline>
</glyph>
<glyph name="quoteleft" format="1">
  <advance width="519"/>
  <unicode hex="2018"/>
  <outline>
    <contour>
      <point x="137" y="461" type="curve" smooth="yes"/>
      <point x="215" y="422"/>
      <point x="313" y="455"/>
      <point x="352" y="532" type="curve" smooth="yes"/>
      <point x="452" y="732" type="line" smooth="yes"/>
      <point x="491" y="810"/>
      <point x="458" y="908"/>
      <point x="381" y="947" type="curve" smooth="yes"/>
      <point x="303" y="986"/>
      <point x="205" y="953"/>
      <point x="166" y="876" type="curve" smooth="yes"/>
      <point x="66" y="676" type="line" smooth="yes"/>
      <point x="27" y="598"/>
      <point x="60" y="500"/>
    </contour>
  </outline>
</glyph>
<glyph name="quoteright" format="1">
  <advance width="519"/>
  <unicode hex="2019"/>
  <outline>
    <contour>
      <point x="381" y="942" type="curve" smooth="yes"/>
      <point x="303" y="981"/>
      <point x="205" y="948"/>
      <point x="166" y="871" type="curve" smooth="yes"/>
      <point x="66" y="671" type="line" smooth="yes"/>
      <point x="27" y="593"/>
      <point x="60" y="495"/>
      <point x="137" y="456" type="curve" smooth="yes"/>
      <point x="215" y="417"/>
      <point x="313" y="450"/>
      <point x="352" y="527" type="curve" smooth="yes"/>
      <point x="452" y="727" type="line" smooth="yes"/>
      <point x="491" y="805"/>
      <point x="458" y="903"/>
    </contour>
  </outline>
</glyph>
<glyph name="quotedblleft" format="1">
  <advance width="625"/>
  <unicode hex="201C"/>
  <outline>
    <contour>
      <point x="458" y="532" type="curve" smooth="yes"/>
      <point x="558" y="732" type="line" smooth="yes"/>
      <point x="597" y="810"/>
      <point x="564" y="908"/>
      <point x="487" y="947" type="curve" smooth="yes"/>
      <point x="448" y="967"/>
      <point x="403" y="968"/>
      <point x="363" y="954" type="curve"/>
      <point x="289" y="981"/>
      <point x="202" y="947"/>
      <point x="166" y="876" type="curve" smooth="yes"/>
      <point x="66" y="676" type="line" smooth="yes"/>
      <point x="27" y="598"/>
      <point x="60" y="500"/>
      <point x="137" y="461" type="curve" smooth="yes"/>
      <point x="176" y="441"/>
      <point x="221" y="440"/>
      <point x="261" y="454" type="curve"/>
      <point x="335" y="427"/>
      <point x="422" y="461"/>
    </contour>
  </outline>
</glyph>
<glyph name="quotedblright" format="1">
  <advance width="619"/>
  <unicode hex="201D"/>
  <outline>
    <contour>
      <point x="452" y="527" type="curve" smooth="yes"/>
      <point x="552" y="727" type="line" smooth="yes"/>
      <point x="591" y="805"/>
      <point x="558" y="903"/>
      <point x="481" y="942" type="curve" smooth="yes"/>
      <point x="443" y="961"/>
      <point x="399" y="963"/>
      <point x="361" y="950" type="curve"/>
      <point x="287" y="975"/>
      <point x="201" y="941"/>
      <point x="166" y="871" type="curve" smooth="yes"/>
      <point x="66" y="671" type="line" smooth="yes"/>
      <point x="27" y="593"/>
      <point x="60" y="495"/>
      <point x="137" y="456" type="curve" smooth="yes"/>
      <point x="175" y="437"/>
      <point x="219" y="435"/>
      <point x="257" y="448" type="curve"/>
      <point x="331" y="423"/>
      <point x="417" y="457"/>
    </contour>
  </outline>
</glyph>
